<svg xmlns="http://www.w3.org/2000/svg" viewBox="0 0 64 64" id="bus-stop-location"><g><circle cx="32" cy="57" r="1"></circle><path d="M42.633 45.377a23 23 0 1 0-21.266 0C8.513 46.344 2 49.073 2 53.5 2 60.525 18.314 62 32 62s30-1.475 30-8.5c0-4.427-6.513-7.156-19.367-8.123ZM11 25a21 21 0 1 1 29.72 19.1.985.985 0 0 0-.292.2l-7.77 7.79a.993.993 0 0 1-1.266.046l-2.789-2.8-.011-.01-5.02-5.031a.985.985 0 0 0-.292-.2A21.064 21.064 0 0 1 11 25Zm21 35c-17.271 0-28-2.491-28-6.5 0-3.277 7.167-5.553 19.668-6.267l1.943 1.946C19.33 49.532 11 50.555 11 53.5c0 3.328 10.618 4.2 16.948 4.429h.036a1 1 0 0 0 .035-2C18.445 55.588 14 54.214 13.107 53.5c.88-.7 5.19-2.036 14.413-2.408l2.5 2.51a2.966 2.966 0 0 0 1.956.732 3.093 3.093 0 0 0 2.043-.779l2.458-2.463c9.223.372 13.536 1.708 14.416 2.408-.9.714-5.337 2.088-14.91 2.43a1 1 0 0 0 .035 2h.036C42.383 57.7 53 56.828 53 53.5c0-2.944-8.328-3.968-14.609-4.321l1.942-1.946C52.833 47.947 60 50.223 60 53.5c0 4.009-10.729 6.5-28 6.5Z"></path><path d="M51 25a19 19 0 1 0-19 19 19.021 19.021 0 0 0 19-19Zm-36 0a17 17 0 1 1 17 17 17.019 17.019 0 0 1-17-17Z"></path><path d="M34 35.268A2.736 2.736 0 0 0 36.732 38h.536A2.736 2.736 0 0 0 40 35.268V34.8a3.044 3.044 0 0 0 2-2.851V25h1a2 2 0 0 0 2-2v-3a2 2 0 0 0-2-2h-1v-2.951A3.053 3.053 0 0 0 38.951 12h-13.9A3.053 3.053 0 0 0 22 15.049V18h-1a2 2 0 0 0-2 2v3a2 2 0 0 0 2 2h1v6.951a3.044 3.044 0 0 0 2 2.849v.466A2.736 2.736 0 0 0 26.732 38h.536A2.736 2.736 0 0 0 30 35.268V35h4ZM42 20h1v3h-1Zm-20 3h-1v-3h1Zm16 12.268a.732.732 0 0 1-.732.732h-.536a.732.732 0 0 1-.732-.732V35h2ZM24 15.049A1.051 1.051 0 0 1 25.049 14h13.9A1.051 1.051 0 0 1 40 15.049V17H24ZM24 19h16v5H24Zm4 16.268a.732.732 0 0 1-.732.732h-.536a.732.732 0 0 1-.732-.732V35h2ZM25.049 33A1.051 1.051 0 0 1 24 31.951V26h16v5.951A1.051 1.051 0 0 1 38.951 33Z"></path><circle cx="27" cy="30" r="1"></circle><circle cx="37" cy="30" r="1"></circle></g></svg>