<?xml version="1.0" encoding="UTF-8"?> <svg xmlns="http://www.w3.org/2000/svg" viewBox="0 0 756 576"><defs><style>.cls-1,.cls-48{fill:#fff;}.cls-2,.cls-56{fill:#dbeaf9;}.cls-17,.cls-3,.cls-36,.cls-53{fill:#000f9f;}.cls-4,.cls-52,.cls-55{fill:#00b4ff;}.cls-10,.cls-5,.cls-51,.cls-58,.cls-7,.cls-8,.cls-9{fill:none;}.cls-10,.cls-5,.cls-8{stroke:#00b4ff;}.cls-10,.cls-5,.cls-51,.cls-7,.cls-8,.cls-9{stroke-miterlimit:10;}.cls-6{opacity:0.5;}.cls-55,.cls-58,.cls-7,.cls-9{stroke:#000f9f;}.cls-10,.cls-8{stroke-width:1.63px;}.cls-9{stroke-width:2.44px;}.cls-10,.cls-55,.cls-58{stroke-linecap:round;}.cls-11,.cls-12{fill:#fcd1a9;}.cls-12{opacity:0.2;}.cls-13{fill:#d1d7f3;}.cls-14{fill:#939598;}.cls-15,.cls-18{fill:#121214;}.cls-16{fill:#bcbec0;}.cls-17,.cls-18{opacity:0.3;}.cls-19{fill:#7079c9;}.cls-20{fill:#5ccfff;}.cls-21{fill:#8cddff;}.cls-22{fill:#fdc300;}.cls-23{fill:#fedc6b;}.cls-24{fill:#8087cf;}.cls-25{fill:#525cbe;}.cls-26{fill:#4752ba;}.cls-27{fill:#3d49b6;}.cls-28{fill:#6e76c8;}.cls-29{fill:#2431ac;}.cls-30{fill:#6971c6;}.cls-31{fill:#f7d2b7;}.cls-32{fill:#2371e2;}.cls-33{fill:#d5dfef;}.cls-34{fill:#f2c8a5;}.cls-35{opacity:0.26;}.cls-36{opacity:0.45;}.cls-37{opacity:0.3;}.cls-38{fill:#eeeeef;}.cls-39{fill:#020203;}.cls-40,.cls-57{fill:#c0c3c5;}.cls-41{fill:#7385a3;}.cls-42{opacity:0.1;}.cls-43{fill:#dce7f7;}.cls-44{opacity:0.7;}.cls-45{opacity:0.2;}.cls-46,.cls-49{fill:#c3def5;}.cls-47{fill:#fedb66;}.cls-48,.cls-49,.cls-50,.cls-52,.cls-53,.cls-54,.cls-55,.cls-56,.cls-57,.cls-58{fill-rule:evenodd;}.cls-50{fill:#f9fafb;}.cls-51{stroke:#c3def5;}.cls-54,.cls-59{fill:#ebeef4;}.cls-55,.cls-58{stroke-linejoin:round;stroke-width:2.5px;}</style></defs><title>CIS-BUS-Charter-vf-2</title><g id="CIS_Bus_Charter_éléments_autour_copy" data-name="CIS Bus Charter éléments autour copy"><path class="cls-1" d="M432.7,62.1a11.74,11.74,0,1,1,0,16.6A11.71,11.71,0,0,1,432.7,62.1Z"></path><path class="cls-2" d="M445.4,74.8a11.68,11.68,0,0,0,1.7-14.4A11.74,11.74,0,1,1,431,76.5,11.68,11.68,0,0,0,445.4,74.8Z"></path><path class="cls-3" d="M441,83.4a13,13,0,0,1-9.2-22.2,12.77,12.77,0,0,1,9.2-3.8,13,13,0,0,1,9.2,3.8,12.77,12.77,0,0,1,3.8,9.2,13,13,0,0,1-13,13ZM441,60a10.7,10.7,0,0,0-7.4,3A10.35,10.35,0,0,0,441,80.7a10.7,10.7,0,0,0,7.4-3,10.27,10.27,0,0,0,3-7.4,10.7,10.7,0,0,0-3-7.4A11.47,11.47,0,0,0,441,60Z"></path><path class="cls-4" d="M52.9,152.8,110,120.3a2.34,2.34,0,0,0,1.1-1.8c0-.6-.5-.8-1.1-.5L52.9,150.4a2.17,2.17,0,0,0-1.1,1.7C51.8,152.9,52.3,153.1,52.9,152.8Z"></path><path class="cls-5" d="M52.9,152.8,110,120.3a2.34,2.34,0,0,0,1.1-1.8c0-.6-.5-.8-1.1-.5L52.9,150.4a2.17,2.17,0,0,0-1.1,1.7C51.8,152.9,52.3,153.1,52.9,152.8Z"></path><path class="cls-4" d="M52.9,166.6,110,134.2a2.34,2.34,0,0,0,1.1-1.8c0-.6-.5-.8-1.1-.5L52.9,164.3a2.17,2.17,0,0,0-1.1,1.7C51.8,166.7,52.3,166.9,52.9,166.6Z"></path><path class="cls-5" d="M52.9,166.6,110,134.2a2.34,2.34,0,0,0,1.1-1.8c0-.6-.5-.8-1.1-.5L52.9,164.3a2.17,2.17,0,0,0-1.1,1.7C51.8,166.7,52.3,166.9,52.9,166.6Z"></path><path class="cls-1" d="M261.3,518.1l29,16.8v17.8l-26.2,15.1-29-16.8V533.2Z"></path><g class="cls-6"><path class="cls-2" d="M264.1,567.8l-29-16.8V533.2l29,16.8Z"></path></g><path class="cls-2" d="M290.3,552.6l-26.2,15.1V549.9l26.2-15.1Z"></path><path class="cls-3" d="M264.1,569.1a1.85,1.85,0,0,1-.7-.2l-29-16.8a1.36,1.36,0,0,1-.7-1.1V533.2a1.23,1.23,0,0,1,.7-1.1L260.6,517a1.48,1.48,0,0,1,1.3,0l29,16.7a1.36,1.36,0,0,1,.7,1.1v17.8a1.23,1.23,0,0,1-.7,1.1l-26.2,15.2A1.42,1.42,0,0,1,264.1,569.1Zm-27.7-18.9,27.7,16L289,551.8V535.6l-27.7-16L236.4,534v16.2Z"></path><path class="cls-1" d="M43.5,321.71a11.74,11.74,0,1,1,0,16.6A11.89,11.89,0,0,1,43.5,321.71Z"></path><path class="cls-2" d="M56.3,334.41A11.68,11.68,0,0,0,58,320a11.74,11.74,0,1,1-16.1,16.1A11.84,11.84,0,0,0,56.3,334.41Z"></path><path class="cls-3" d="M51.8,343a13,13,0,0,1-9.2-22.2,12.77,12.77,0,0,1,9.2-3.8,13,13,0,0,1,9.2,3.8,12.77,12.77,0,0,1,3.8,9.2,13,13,0,0,1-13,13Zm0-23.5a10.7,10.7,0,0,0-7.4,3,10.35,10.35,0,0,0,7.4,17.7,10.7,10.7,0,0,0,7.4-3,10.5,10.5,0,0,0,0-14.7A10.7,10.7,0,0,0,51.8,319.51Z"></path><path class="cls-1" d="M118.6,431.2a72.31,72.31,0,0,0,3.1,6.8h0c1.1,2.2,1.3,8.4-.6,5.8a26.8,26.8,0,0,1-2.5-4.7v-7.9Z"></path><path class="cls-1" d="M226.51,108.78V71.88a12.81,12.81,0,0,1,5.7-9.9l60.2-34.7c3.1-1.8,5.7-.3,5.7,3.3v36.9a12.81,12.81,0,0,1-5.7,9.9l-5.8,3.4c-9.8,5.7-12.1,9-16.4,16.5l-4.6,8a9.34,9.34,0,0,1-3.3,3.5,3.33,3.33,0,0,1-3.3.3l-4.6-2.7c-4.3-2.5-6.5-3.2-16.4,2.5l-5.8,3.3c-1.6.9-3,1-4,.4A4.21,4.21,0,0,1,226.51,108.78Z"></path><path class="cls-3" d="M229.61,114.18a3.7,3.7,0,0,1-2.1-.6,5.27,5.27,0,0,1-2.3-4.8V71.88a13.73,13.73,0,0,1,6.4-11l60.2-34.7c2-1.1,3.9-1.3,5.4-.4a5.27,5.27,0,0,1,2.3,4.8v36.9a13.73,13.73,0,0,1-6.4,11l-5.8,3.4c-9.6,5.6-11.7,8.7-15.9,16l-4.6,8a10.19,10.19,0,0,1-3.8,3.9,4.52,4.52,0,0,1-4.6.3l-4.6-2.7c-3.7-2.1-5.4-3.1-15.1,2.5l-5.8,3.3A7.73,7.73,0,0,1,229.61,114.18Zm-1.8-5.4a3,3,0,0,0,1,2.6c.6.4,1.6.2,2.7-.4l5.8-3.4c10-5.8,12.8-5.3,17.7-2.5l4.6,2.7c.4.3,1.2.1,2-.3a9.07,9.07,0,0,0,2.8-3l4.6-8c4.3-7.5,6.7-11,16.9-16.9l5.8-3.4a11.56,11.56,0,0,0,5.1-8.7v-37a2.81,2.81,0,0,0-1-2.5c-.6-.4-1.6-.2-2.7.4l-60.2,34.7a11.56,11.56,0,0,0-5.1,8.7v37Z"></path><path class="cls-2" d="M274,63.68a9.82,9.82,0,0,1,4.5-7.8,3.16,3.16,0,0,1,3.2-.3,3.24,3.24,0,0,1,1.3,2.9,9.82,9.82,0,0,1-4.5,7.8,3.16,3.16,0,0,1-3.2.3C274.51,66.18,274,65.18,274,63.68Zm-15.3,12.6a3.16,3.16,0,0,0,3.2-.3,10,10,0,0,0,4.5-7.8,3.12,3.12,0,0,0-1.3-2.9,3.16,3.16,0,0,0-3.2.3,9.82,9.82,0,0,0-4.5,7.8A3,3,0,0,0,258.71,76.28ZM242,85.88a3.16,3.16,0,0,0,3.2-.3,10,10,0,0,0,4.5-7.8,3.12,3.12,0,0,0-1.3-2.9,3.16,3.16,0,0,0-3.2.3,9.82,9.82,0,0,0-4.5,7.8A3.24,3.24,0,0,0,242,85.88Z"></path><path class="cls-1" d="M119.22,53l-78.8,44.6v110.2l1.5,8.3,16.2-5.3,14.6-8.3,58.2-33.1,12.3-16.3-1.7-19.1-20.2,9.2Z"></path><path class="cls-2" d="M97.62,88.36c0,9.1-7.3,20.6-16.4,25.7s-16.4,2-16.4-7.1,7.3-20.6,16.4-25.7S97.62,79.26,97.62,88.36Z"></path><path class="cls-3" d="M40.42,102.86a8.53,8.53,0,0,1,1.6-4.6,13,13,0,0,1,3.7-3.7h0L113.92,56c1.5-.8,2.8-1,3.7-.6a2.84,2.84,0,0,1,1.6,2.9v86.3l-53.7,30.5a7.52,7.52,0,0,0-2.8,2.8,7,7,0,0,0-1.2,3.5v14.8a6.15,6.15,0,0,0,.1,1.4c-.8,5.6-5.2,12-10.5,14.9H51c-2.9,1.6-5.6,1.9-7.5,1s-3.1-2.9-3.1-5.9V102.86Zm32.3,97.4-14.4,8.2a25.79,25.79,0,0,0,5.5-11.9v-.3c0-.4-.1-.9-.1-1.4v-14.8a3.68,3.68,0,0,1,.5-1.6,3,3,0,0,1,1.3-1.2l54.9-31.2,21.3-12.1-.1,16.4h0a18.37,18.37,0,0,1-3.1,9.3,23,23,0,0,1-7.5,7.4L90.62,190Zm-21.8,14.6h0a5.58,5.58,0,0,0,.8-.5c.1,0,.1-.1.2-.1l20.7-11.7,17.8-10.1,40.4-22.9c7.1-4,12.9-13.1,12.9-20.1l.1-17.4v-.2c0-.6-.5-.8-1.1-.5l-21.3,12.1V57.16c0-2.1-.8-3.5-2.2-4.1s-3.2-.4-5.3.8l-68.2,38.4h0a15.5,15.5,0,0,0-5.3,5.2,12.37,12.37,0,0,0-2.2,6.6V209c0,3.5,1.4,6,3.7,7.1S47.42,216.86,50.92,214.86Z"></path><path class="cls-7" d="M40.42,102.86a8.53,8.53,0,0,1,1.6-4.6,13,13,0,0,1,3.7-3.7h0L113.92,56c1.5-.8,2.8-1,3.7-.6a2.84,2.84,0,0,1,1.6,2.9v86.3l-53.7,30.5a7.52,7.52,0,0,0-2.8,2.8,7,7,0,0,0-1.2,3.5v14.8a6.15,6.15,0,0,0,.1,1.4c-.8,5.6-5.2,12-10.5,14.9H51c-2.9,1.6-5.6,1.9-7.5,1s-3.1-2.9-3.1-5.9V102.86Zm32.3,97.4-14.4,8.2a25.79,25.79,0,0,0,5.5-11.9v-.3c0-.4-.1-.9-.1-1.4v-14.8a3.68,3.68,0,0,1,.5-1.6,3,3,0,0,1,1.3-1.2l54.9-31.2,21.3-12.1-.1,16.4h0a18.37,18.37,0,0,1-3.1,9.3,23,23,0,0,1-7.5,7.4L90.62,190Zm58.2-30.8c7.1-4,12.9-13.1,12.9-20.2l.1-17.4v-.2c0-.6-.5-.8-1.1-.5l-21.3,12.1V57c0-2.1-.8-3.5-2.2-4.1s-3.2-.4-5.3.8l-68.3,38.6h0a15.5,15.5,0,0,0-5.3,5.2,12.37,12.37,0,0,0-2.2,6.6V209c0,3.5,1.4,6,3.7,7.1s5.5.8,9.1-1.2h.1a1.79,1.79,0,0,0,.7-.5c.1,0,.1-.1.2-.1Z"></path><path class="cls-4" d="M53,153.06l57.1-32.5a2.34,2.34,0,0,0,1.1-1.8c0-.6-.5-.8-1.1-.5L53,150.66a2.17,2.17,0,0,0-1.1,1.7C51.92,153.16,52.42,153.36,53,153.06Z"></path><path class="cls-5" d="M53,153.06l57.1-32.5a2.34,2.34,0,0,0,1.1-1.8c0-.6-.5-.8-1.1-.5L53,150.66a2.17,2.17,0,0,0-1.1,1.7C51.92,153.16,52.42,153.36,53,153.06Z"></path><path class="cls-4" d="M53,166.86l57.1-32.4a2.34,2.34,0,0,0,1.1-1.8c0-.6-.5-.8-1.1-.5L53,164.56a2.17,2.17,0,0,0-1.1,1.7C51.92,167,52.42,167.16,53,166.86Z"></path><path class="cls-5" d="M53,166.86l57.1-32.4a2.34,2.34,0,0,0,1.1-1.8c0-.6-.5-.8-1.1-.5L53,164.56a2.17,2.17,0,0,0-1.1,1.7C51.92,167,52.42,167.16,53,166.86Z"></path><path class="cls-4" d="M80,95.76a1,1,0,0,1-.2-.7,5.07,5.07,0,0,1,.2-.9,3.13,3.13,0,0,1,.5-1V96A.76.76,0,0,1,80,95.76Zm2.6,2.8a2,2,0,0,1,1.1.2c.3.1.4.4.4.8a2.93,2.93,0,0,1-.4,1.6,13.44,13.44,0,0,1-1.1,1.4Zm-5,7.7a5.07,5.07,0,0,0,1.3.2,5,5,0,0,0,1.6-.3v.5c0,.7.4.9,1.1.5a2,2,0,0,0,1.1-1.7V105a17.38,17.38,0,0,0,1.5-1.3,6.1,6.1,0,0,0,1.2-1.6,11.08,11.08,0,0,0,.9-1.9,6.93,6.93,0,0,0,.3-2,2.9,2.9,0,0,0-.3-1.4,3,3,0,0,0-.8-.8,2.38,2.38,0,0,0-1.2-.3,7.57,7.57,0,0,0-1.5.1v-3.7c.3,0,.5,0,.6.2l.3.6a1.38,1.38,0,0,0,.3.4c.1.1.4.1.7-.1a6.47,6.47,0,0,0,.9-.8,2.28,2.28,0,0,0,.3-1.1,2,2,0,0,0-.3-1.1,1.34,1.34,0,0,0-.7-.6,3,3,0,0,0-1-.2,5,5,0,0,0-1.2.2v-.2c0-.8-.4-1-1.1-.6a1.9,1.9,0,0,0-1,1.8v.2a5.73,5.73,0,0,0-1.1,1.1,7.1,7.1,0,0,0-1,1.4,10.09,10.09,0,0,0-.7,1.5,4.14,4.14,0,0,0-.2,1.6,5.07,5.07,0,0,0,.2,1.3,5.55,5.55,0,0,0,.6.8,1.61,1.61,0,0,0,.9.3,2.44,2.44,0,0,0,1.2,0v4.9c-.8.1-1.4-.1-1.6-.9q-.3-.75-1.2-.3a2,2,0,0,0-.8.8,1.67,1.67,0,0,0-.4,1.1,2,2,0,0,0,.3,1.1A2,2,0,0,0,77.62,106.26Z"></path><path class="cls-4" d="M53,139.16l57.1-32.4a2.34,2.34,0,0,0,1.1-1.8c0-.6-.5-.8-1.1-.5L53,136.86a2.17,2.17,0,0,0-1.1,1.7C51.92,139.36,52.42,139.56,53,139.16Z"></path><path class="cls-5" d="M53,139.16l57.1-32.4a2.34,2.34,0,0,0,1.1-1.8c0-.6-.5-.8-1.1-.5L53,136.86a2.17,2.17,0,0,0-1.1,1.7C51.92,139.36,52.42,139.56,53,139.16Z"></path><path class="cls-1" d="M42.41,462.25l66-41.07,2.12,99.92-65.2,44.09H39.55L41,464.45Z"></path><path class="cls-8" d="M46.4,496.32l57.46-36.19"></path><path class="cls-8" d="M46.24,502.68l57.7-36.35"></path><path class="cls-8" d="M46.24,509l57.7-36.35"></path><path class="cls-8" d="M46.32,515.06,104,478.72"></path><path class="cls-9" d="M104.75,527.78,45.34,565.19c-3.18,2-5.79.65-5.79-3.1V469.83a13.82,13.82,0,0,1,5.79-10.43L104.75,422c3.18-2,5.79-.65,5.79,3.1v92.26C110.62,521,108,525.74,104.75,527.78Z"></path><path class="cls-4" d="M63.19,466.08l-15.81,10a.68.68,0,0,1-1.14-.57v-5a2.38,2.38,0,0,1,1.14-2l15.89-10a.67.67,0,0,1,1.14.57v5A2.65,2.65,0,0,1,63.19,466.08Z"></path><path class="cls-8" d="M63.19,466.08l-15.81,10a.68.68,0,0,1-1.14-.57v-5a2.38,2.38,0,0,1,1.14-2l15.89-10a.67.67,0,0,1,1.14.57v5A2.65,2.65,0,0,1,63.19,466.08Z"></path><path class="cls-8" d="M103,441.06,71.83,460.7c-.49.33-.9-.08-.9-.89v-4.73a2.69,2.69,0,0,1,.9-2l26.73-16.87L103,433.4c.49-.32.9.08.9.9V439A2.65,2.65,0,0,1,103,441.06Z"></path><path class="cls-8" d="M94.16,439v7.58"></path><path class="cls-10" d="M46.24,484.91l57.7-36.35"></path><path class="cls-10" d="M46.24,527.45l57.7-36.35"></path><path class="cls-10" d="M46.24,533.65l39.93-25.19"></path><path class="cls-10" d="M46.24,539.92l48-30.23"></path><path class="cls-10" d="M46.24,546.12l48-30.24"></path><path class="cls-10" d="M46.24,553.86l55.91-35.21"></path><path class="cls-8" d="M102.15,486l-54,34c-1,.66-1.79.17-1.79-1V492.41a4.13,4.13,0,0,1,1.79-3.18l54-34c1-.65,1.79-.16,1.79,1v26.57A4.29,4.29,0,0,1,102.15,486Z"></path><path class="cls-8" d="M58.22,482.87V513.6"></path><path class="cls-8" d="M90.82,474.56v18.5"></path><path class="cls-1" d="M701.16,179c0,3.9-2.8,5.5-6.2,3.6l-70.9-40.9a13.82,13.82,0,0,1-6.2-10.7V31.39c0-3.9,2.8-5.5,6.2-3.6l70.9,41a13.82,13.82,0,0,1,6.2,10.7Z"></path><path class="cls-3" d="M697.66,184.59a6.6,6.6,0,0,1-3.4-1l-70.9-40.9a14.75,14.75,0,0,1-6.8-11.8V31.39c0-2.4.9-4.1,2.4-5s3.5-.7,5.6.4l70.9,40.9a14.9,14.9,0,0,1,6.8,11.8V179c0,2.4-.9,4.1-2.4,5A4,4,0,0,1,697.66,184.59Zm-76.4-156.4a1.69,1.69,0,0,0-1,.3q-1.2.75-1.2,3V131a12.77,12.77,0,0,0,5.6,9.7l70.9,40.9c1.3.7,2.4.9,3.2.4s1.2-1.5,1.2-3V79.49a12.77,12.77,0,0,0-5.6-9.7l-71-40.9A3.75,3.75,0,0,0,621.26,28.19Z"></path><path class="cls-2" d="M681,79.19c-5.2-9-13.7-13.9-18.9-10.9s-5.2,12.8,0,21.8S675.76,104,681,101,686.16,88.19,681,79.19Z"></path><path class="cls-4" d="M682.06,100.19c-2.4,2.2-6.3,2.4-10.5-.1s-8.1-7-10.6-12c1.2-3.1,4-4.5,7.5-3.7a11.09,11.09,0,0,1-2.2-6.1c0-3.3,2.4-4.7,5.2-3a11.52,11.52,0,0,1,5.2,9.1c0,2-.9,3.3-2.2,3.6A24.43,24.43,0,0,1,682.06,100.19Zm-54.2-45.3a3.53,3.53,0,0,0,1.5,2.6l17.4,10c.8.5,1.5.1,1.5-.9a3.36,3.36,0,0,0-1.5-2.6l-17.4-10C628.46,53.59,627.86,54,627.86,54.89Zm5-3.9a1,1,0,0,1,1.5-.9l12.3,7.1a3.36,3.36,0,0,1,1.5,2.6,1,1,0,0,1-1.5.9l-12.3-7.1A3.53,3.53,0,0,1,632.86,51Zm-5,10.8a3.36,3.36,0,0,0,1.5,2.6l17.4,10c.8.5,1.5.1,1.5-.9a3.53,3.53,0,0,0-1.5-2.6l-17.4-10C628.46,60.39,627.86,60.79,627.86,61.79Zm0,13.7a3.36,3.36,0,0,0,1.5,2.6l17.4,10c.8.5,1.5.1,1.5-.9a3.53,3.53,0,0,0-1.5-2.6l-17.4-10C628.46,74.19,627.86,74.49,627.86,75.49Zm8.3-2.1a1,1,0,0,1,1.5-.9l9,5.2a3.36,3.36,0,0,1,1.5,2.6,1,1,0,0,1-1.5.9l-9-5.2A3.11,3.11,0,0,1,636.16,73.39Zm-8.3,19.3a3.36,3.36,0,0,0,1.5,2.6l56.2,32.4c.8.5,1.5.1,1.5-.9a3.53,3.53,0,0,0-1.5-2.6l-56.2-32.4C628.46,91.39,627.86,91.79,627.86,92.69Zm10.3,19.7a3.36,3.36,0,0,0,1.5,2.6l45.9,26.5c.8.5,1.5.1,1.5-.9a3.53,3.53,0,0,0-1.5-2.6l-45.9-26.5C638.76,111.09,638.16,111.49,638.16,112.39Zm10.3-.9c0-.9.7-1.3,1.5-.8l35.5,20.5a3.36,3.36,0,0,1,1.5,2.6,1,1,0,0,1-1.5.9L650,114.19A3.73,3.73,0,0,1,648.46,111.49Zm-20.6,5.2a3.36,3.36,0,0,0,1.5,2.6l56.2,32.4c.8.5,1.5.1,1.5-.9a3.53,3.53,0,0,0-1.5-2.6l-56.2-32.4C628.46,115.39,627.86,115.79,627.86,116.69Zm10.3,19.7a3.53,3.53,0,0,0,1.5,2.6l45.9,26.5c.8.5,1.5.1,1.5-.9a3.53,3.53,0,0,0-1.5-2.6l-45.9-26.5C638.76,135.09,638.16,135.49,638.16,136.39Zm10.3-.9c0-.9.7-1.3,1.5-.8l35.5,20.5a3.36,3.36,0,0,1,1.5,2.6,1,1,0,0,1-1.5.9L650,138.19A3.73,3.73,0,0,1,648.46,135.49Z"></path><path class="cls-1" d="M42.8,322.92a11.74,11.74,0,1,1-.32,16.6A11.71,11.71,0,0,1,42.8,322.92Z"></path><path class="cls-2" d="M55.25,335.87a11.67,11.67,0,0,0,2-14.36,11.43,11.43,0,0,1,2.17,1.74,11.74,11.74,0,0,1-16.92,16.27,11.33,11.33,0,0,1-1.66-2.23A11.7,11.7,0,0,0,55.25,335.87Z"></path><path class="cls-3" d="M50.68,344.38A13,13,0,0,1,41.92,322a12.76,12.76,0,0,1,9.27-3.62,13,13,0,0,1,9.13,4,12.79,12.79,0,0,1,3.62,9.27,13,13,0,0,1-13.26,12.74ZM51.14,321a10.68,10.68,0,0,0-7.46,2.85,10.35,10.35,0,0,0,7.06,17.84,10.64,10.64,0,0,0,7.45-2.85,10.29,10.29,0,0,0,3.15-7.34A10.74,10.74,0,0,0,58.48,324,11.44,11.44,0,0,0,51.14,321Z"></path></g><g id="camion_droit_élargir" data-name="camion + droit / élargir"><path class="cls-11" d="M465,374.89c-.27,1.65-5.1,5.92-5.1,5.92l-3.09-4,.42-.64Z"></path><path class="cls-11" d="M457.2,376.21l-6.3-.24s-2-2.84-.91-3.06c5.37-.84,14.5-4.14,15,2l-4.1,1.32Z"></path><path class="cls-12" d="M457.2,376.21c3.33,1.57,6.67-1,6.67-1A14.93,14.93,0,0,1,457.2,376.21Z"></path><path class="cls-13" d="M450.63,382.4c.53-1.35,3.21-3.3,6.15-5.55,2.7.35,3.84,3.3,4,3.75-2.37,2.4-4.23,8-4.23,8S450.09,383.75,450.63,382.4Z"></path><path class="cls-3" d="M455.76,445.65c1.27,1.82,4.69,3.58,5.18,4.41a2.46,2.46,0,0,1-.3,2c-3.18.9-6.59-2.19-6.59-2.19a6.82,6.82,0,0,1-4.07-1.46c-.59-.66.2-3.24.2-3.24S455.18,445.76,455.76,445.65Z"></path><path class="cls-14" d="M457.21,412c.82,2.56.49,11.35-.16,19.4a42.25,42.25,0,0,0-.41,14.58c-.57.74-5,3-7.47.27-.23-4.68-.33-11.34,1.3-15.89-.82-4.68-2.67-14-2.67-14l2.76-6.74h6S456.79,410.44,457.21,412Z"></path><path class="cls-15" d="M443.34,447.82a19.17,19.17,0,0,0,2.66,5.42c.53.76.73,1.87.28,2.28-1.95,1.76-4.45.67-5.52-.67s-1.85-4.82-1.92-5.15a14.19,14.19,0,0,1,.9-2.52A27.53,27.53,0,0,1,443.34,447.82Z"></path><path class="cls-16" d="M440.6,414.27c-1,5.51-.42,16.08-.84,16.86-3.12,6.79-2.38,16.6-2,17.85,1,3,6.36,2.62,6.9-.5-.48-7.8,1.86-17.65,1.86-17.65a65.26,65.26,0,0,0,3.6-14.82c.32-2.44,1.26-4.2,1.14-4.44s-6.06-2-6.06-2S441.2,412.47,440.6,414.27Z"></path><polygon class="cls-11" points="449.66 380.6 449.76 382.13 450.63 383.69 450.9 387.12 449.76 388.57 446.88 387.86 444.62 386.34 445 382.13 449.66 380.6"></polygon><path class="cls-13" d="M449.81,382.31a7.5,7.5,0,0,1,.45,4.81l2.79,25.71,1.47,4.86s3.57-2.76,3.5-6.9c-.6-12.54.71-14-.37-20.78s-6.55-8.21-6.55-8.21S449.45,381.65,449.81,382.31Z"></path><path class="cls-17" d="M450.26,387.12a5.19,5.19,0,0,1,4.13-1.12c-.22-.36-1.1-2.16-2.4-2.62-.36-.16-1.36,1.24-1.36,1.24Z"></path><path class="cls-13" d="M450.26,387.12c-3.64.22-5.94-1.24-7-4.4-1,2-4.22,5-4.22,5l1.22,11.89s2.13,3.29,1.81,4.85a45.46,45.46,0,0,0-2.17,10.82s2.82-2.33,4.5-2,6.18,4.35,7.2,5.43C453.62,417.39,454.41,391.26,450.26,387.12Z"></path><path class="cls-18" d="M450.26,387.12c4.74,6.79,2.73,25.13,2.73,25.13S453.31,394.55,450.26,387.12Z"></path><path class="cls-3" d="M448.45,386.45a5,5,0,0,0,1.81.67,4.73,4.73,0,0,1-3-.13v-.42Z"></path><path class="cls-17" d="M442.2,384.4s1.57,4,4.4,5a4.45,4.45,0,0,1,3.66-2.31,6,6,0,0,1-1.81-.67Z"></path><path class="cls-3" d="M443.3,382.4a9.85,9.85,0,0,0,5.15,4.05,3.86,3.86,0,0,0-1.94,2.28,10.19,10.19,0,0,1-4.36-4.46Z"></path><path class="cls-11" d="M440.24,401.7s-.79,2.16-1.65,3.87c.49,4.36-.95,6.79-1.11,12.39a12.17,12.17,0,0,1,2.31,2.08c.45.68.75,2.3.27,2.48s-1-1.3-1.33-1c-1.18,1.61,1.39,3.6,1.21,4-1.17,1.23-4-2-4.56-3.18s-.53-3.32-.48-5.1c0,0-.73-7.33-.95-11.22a30.81,30.81,0,0,1,1.31-5.19Z"></path><path class="cls-13" d="M440.78,387.8c-4.08-1.28-4.73,5.29-4.73,5.29a73.33,73.33,0,0,1-1.54,7.71c1.64,2.7,6.27,1.52,6.27,1.52l2-8.4S443.84,388.76,440.78,387.8Z"></path><path class="cls-11" d="M441.71,379.88s2.15,4.17,3.12,4.9c.61.47,3,.56,3.64-1,.5-1.25,1.19-3.22,1.19-3.22l1.13-3.3v-2.48L447,371.35l-4,.9-2.39,3.17v2.05Z"></path><path class="cls-3" d="M441.71,379.88s-.81-4.13.21-5.06c.63-.27,1.8.59,2.64.49s2.51-1.45,3.06-1.2c.72.33,1.62,3.12,1.62,3.12a10.22,10.22,0,0,0,1-1.14c.51.67-.54,4.51-.54,4.51s2.22-3.08,1.77-5-3.06-7-6.69-4.89c-1.47-1.05-4.26,1.14-4.77,4A6.33,6.33,0,0,0,441.71,379.88Z"></path><path class="cls-3" d="M451.49,385.08c.76-.4,2.44.48,2.44.48a10.3,10.3,0,0,0-4.23-4.37l.06.94A24.23,24.23,0,0,0,451.49,385.08Z"></path><path class="cls-3" d="M450.26,387.12s.66-1.2,1.23-2a5.13,5.13,0,0,0-1.73-2.95A7.63,7.63,0,0,1,450.26,387.12Z"></path><path class="cls-3" d="M464.83,442.82c-.54-.53-1.1-.7-1.48-.49h0l-1.15.67,2.06,3.46s1.12-.64,1.15-.67h0a.78.78,0,0,0,.28-.37A2.78,2.78,0,0,0,464.83,442.82Z"></path><path class="cls-3" d="M464.56,446.06c-.27.7-1.08.67-1.82-.07a2.8,2.8,0,0,1-.86-2.6c.27-.7,1.09-.67,1.83.07A2.79,2.79,0,0,1,464.56,446.06Z"></path><path class="cls-3" d="M463.86,445.5c-.17.26-.54.21-.89-.13a1.43,1.43,0,0,1-.43-1.32.35.35,0,0,1,.33-.26.59.59,0,0,0,0,.08,1.42,1.42,0,0,0,.44,1.33A.8.8,0,0,0,463.86,445.5Z"></path><path class="cls-19" d="M463.91,445.41a.41.41,0,0,1-.05.09.8.8,0,0,1-.59-.3,1.42,1.42,0,0,1-.44-1.33.59.59,0,0,1,0-.08.81.81,0,0,1,.6.29A1.44,1.44,0,0,1,463.91,445.41Z"></path><path class="cls-3" d="M465.43,442.45c.13-.12.25-.15.34-.1l6.34,3.65h.11l9.49-5.48-6-3.44h0a.14.14,0,0,1-.08-.09.63.63,0,0,1,.2-.59c.12-.12.25-.16.33-.11l6.34,3.65c.81.46.3,1-.09,1.21h0l-9.75,5.63a1,1,0,0,1-1.07,0l-6.32-3.64h0a.16.16,0,0,1-.07-.09A.67.67,0,0,1,465.43,442.45Z"></path><path class="cls-20" d="M464,415.88l12.17-7.06a.91.91,0,0,1,.9-.09h0l6.51,3.76-6.14,15v6a2.83,2.83,0,0,1-1.28,2.21l-2.76,1.6-3.81,9.3-6.49-3.75h0a.89.89,0,0,1-.39-.83v-24A2.83,2.83,0,0,1,464,415.88Z"></path><path class="cls-3" d="M466.79,417.48,479,410.43a.94.94,0,0,1,.9-.1h0l.34.21a.92.92,0,0,0-.86.1l-12.18,7.06a2.82,2.82,0,0,0-1.27,2.21v7.83l-.39-.23v-7.83A2.83,2.83,0,0,1,466.79,417.48Z"></path><path class="cls-4" d="M469.17,445.78c0,.81.58,1.14,1.28.74l12.17-7.06a2.83,2.83,0,0,0,1.28-2.21v-24c0-.81-.58-1.14-1.28-.74l-12.17,7.06a2.83,2.83,0,0,0-1.28,2.21Z"></path><path class="cls-21" d="M468.05,431l-4.33-2.5a.3.3,0,0,0-.31,0h0l-1.2.69,1.07,9.5v2.15a1,1,0,0,0,.45.78l1,.57,2.42,2.67,1.24-.7h0a.31.31,0,0,0,.14-.29V431.83A1,1,0,0,0,468.05,431Z"></path><path class="cls-20" d="M467.3,444.57c0,.29-.2.4-.45.26l-4.33-2.5a1,1,0,0,1-.45-.79V429.49c0-.29.21-.4.45-.26l4.33,2.51a1,1,0,0,1,.45.78Z"></path><polygon class="cls-3" points="466.62 434.51 462.61 432.19 462.61 431.82 466.62 434.15 466.62 434.51"></polygon><path class="cls-21" d="M470.67,422.47v5a.3.3,0,0,0,.13.29h0l.72.41,8.18-5.4,1.85-1.07a1,1,0,0,0,.46-.78v-1.14l.64-3.7-.76-.45h0a.33.33,0,0,0-.33,0l-10.43,6A1,1,0,0,0,470.67,422.47Z"></path><path class="cls-20" d="M482.3,416.09c.25-.14.45,0,.45.26v5a1,1,0,0,1-.45.78l-10.43,6a.28.28,0,0,1-.46-.27v-5a1,1,0,0,1,.45-.79Z"></path><polygon class="cls-3" points="472.36 423.72 482 418.15 482 417.78 472.36 423.35 472.36 423.72"></polygon><path class="cls-21" d="M470.67,431.81v11.66a.32.32,0,0,0,.13.29h0l1.37.78,7.53-5.77,1.85-1.07a1,1,0,0,0,.46-.78v-7.79l1.24-3.36-1.36-.79h0a.33.33,0,0,0-.33,0l-10.43,6A1,1,0,0,0,470.67,431.81Z"></path><path class="cls-20" d="M482.92,425.79c.25-.14.45,0,.45.26V437.7a1,1,0,0,1-.45.79l-10.44,6c-.24.14-.45,0-.45-.26V432.6a1,1,0,0,1,.45-.79Z"></path><polygon class="cls-3" points="472.99 434.15 482.64 428.59 482.64 428.22 473 433.78 472.99 434.15"></polygon><path class="cls-3" d="M467.17,415.72c.28-.07.44-.23.44-.39v-.48l-1.52,0v.44h0a.3.3,0,0,0,.07.19A1.06,1.06,0,0,0,467.17,415.72Z"></path><path class="cls-3" d="M466.16,415.08c-.17-.22,0-.49.37-.59a1.06,1.06,0,0,1,1,.21c.18.22,0,.49-.37.59A1.06,1.06,0,0,1,466.16,415.08Z"></path><path class="cls-3" d="M475.89,410.63c.28-.08.43-.23.44-.4v-.47l-1.52,0v.44h0a.27.27,0,0,0,.07.18A1,1,0,0,0,475.89,410.63Z"></path><path class="cls-3" d="M474.88,410c-.18-.22,0-.48.37-.58a1,1,0,0,1,1,.21c.18.22,0,.48-.37.59A1.06,1.06,0,0,1,474.88,410Z"></path><path class="cls-3" d="M475.38,410c-.17-.05-.27-.14-.27-.24v-3.1l.91,0v3.08h0a.19.19,0,0,1,0,.11A.65.65,0,0,1,475.38,410Z"></path><path class="cls-3" d="M476,406.78c.11-.13,0-.29-.22-.35a.62.62,0,0,0-.61.13c-.11.13,0,.29.22.35A.62.62,0,0,0,476,406.78Z"></path><path class="cls-3" d="M466.66,415.08c-.16,0-.26-.14-.26-.24v-3.1l.92,0v3.08h0a.13.13,0,0,1-.05.11A.62.62,0,0,1,466.66,415.08Z"></path><path class="cls-3" d="M467.27,411.88c.1-.14,0-.29-.22-.36a.64.64,0,0,0-.61.13c-.11.13,0,.29.22.35A.62.62,0,0,0,467.27,411.88Z"></path><path class="cls-3" d="M476.06,405.15c-.27-.27-.55-.35-.74-.24l-.56.32,1.06,1.74.5-.3h0a.41.41,0,0,0,.17-.21A1.38,1.38,0,0,0,476.06,405.15Z"></path><path class="cls-3" d="M476,406.75c-.14.36-.55.34-.92,0a1.39,1.39,0,0,1-.43-1.32c.13-.35.55-.33.92,0A1.38,1.38,0,0,1,476,406.75Z"></path><path class="cls-3" d="M475.47,405.77a.34.34,0,0,0-.37-.12l-8.83,5.05.52.86,8.81-5h0a.27.27,0,0,0,.08-.1A.69.69,0,0,0,475.47,405.77Z"></path><path class="cls-3" d="M466.87,411.45c-.06.18-.26.17-.45,0a.7.7,0,0,1-.21-.65c.07-.17.27-.16.45,0A.66.66,0,0,1,466.87,411.45Z"></path><path class="cls-3" d="M467.3,410.2c-.27-.26-.56-.35-.75-.24l-.55.32,1.05,1.74.51-.29h0a.38.38,0,0,0,.17-.2A1.45,1.45,0,0,0,467.3,410.2Z"></path><path class="cls-3" d="M467.23,411.81c-.14.35-.55.34-.93,0a1.43,1.43,0,0,1-.43-1.31c.14-.36.55-.34.93,0A1.44,1.44,0,0,1,467.23,411.81Z"></path><path class="cls-22" d="M447.07,449l-17-9.79a.63.63,0,0,0-.73,0l-5.07,2.93,4.85,6.25v3a2.09,2.09,0,0,0,.95,1.63l4.77,2.76,7.78,10,5-2.9a.61.61,0,0,0,.34-.63V450.66A2.11,2.11,0,0,0,447.07,449Z"></path><path class="cls-13" d="M445,450.25l-17-9.79a.63.63,0,0,0-.73,0l-.19.11a.68.68,0,0,1,.63.08l17,9.79a2.08,2.08,0,0,1,.94,1.63v11.59a.67.67,0,0,1-.27.61h0l.23-.14a.62.62,0,0,0,.33-.63V451.88A2.08,2.08,0,0,0,445,450.25Z"></path><path class="cls-23" d="M442.93,465.17c0,.6-.42.85-.94.55l-17-9.79a2.12,2.12,0,0,1-.94-1.63V442.71c0-.6.43-.84.94-.54L442,452a2.08,2.08,0,0,1,.94,1.63Z"></path><polygon class="cls-24" points="434.37 442.61 434.77 442.36 434.37 442.12 433.96 442.36 434.37 442.61"></polygon><polygon class="cls-25" points="434.37 444.6 434.77 444.38 434.77 442.36 434.37 442.61 434.37 444.6"></polygon><polygon class="cls-25" points="434.37 444.6 433.96 444.38 433.96 442.36 434.37 442.61 434.37 444.6"></polygon><path class="cls-13" d="M437.87,445.45h0a.42.42,0,0,0,.22-.05,1.08,1.08,0,0,0,.47-.83.37.37,0,0,0,0-.2v0l-3.52-2a.36.36,0,0,0-.33,0,1.07,1.07,0,0,0-.47.83.35.35,0,0,0,.13.31h0Z"></path><path class="cls-13" d="M437.72,445.16a1,1,0,0,1,.49-.82c.26-.15.46,0,.46.27a1,1,0,0,1-.46.82C437.94,445.59,437.72,445.45,437.72,445.16Z"></path><polygon class="cls-24" points="438.44 444.96 438.85 444.71 438.44 444.47 438.03 444.71 438.44 444.96"></polygon><polygon class="cls-25" points="438.44 446.95 438.85 446.73 438.85 444.71 438.44 444.96 438.44 446.95"></polygon><polygon class="cls-25" points="438.44 446.95 438.03 446.73 438.03 444.71 438.44 444.96 438.44 446.95"></polygon><polygon class="cls-13" points="439.3 464.16 437.88 463.35 437.88 449.59 439.3 450.4 439.3 464.16"></polygon><polygon class="cls-13" points="444.34 447.46 442.93 446.65 437.88 449.59 439.3 450.4 444.34 447.46"></polygon><polygon class="cls-26" points="440.19 448.25 440.19 447.85 442.62 448.07 442.6 448.46 441.59 449.06 440.19 448.25"></polygon><polygon class="cls-3" points="440.19 447.85 441.21 447.26 442.62 448.07 441.59 448.65 440.19 447.85"></polygon><polygon class="cls-13" points="429.14 458.29 427.73 457.48 427.73 443.72 429.14 444.54 429.14 458.29"></polygon><polygon class="cls-13" points="434.19 441.59 432.78 440.78 427.73 443.72 429.14 444.54 434.19 441.59"></polygon><polygon class="cls-26" points="430.03 442.38 430.03 441.98 432.46 442.2 432.45 442.6 431.44 443.19 430.03 442.38"></polygon><polygon class="cls-3" points="430.03 441.98 431.05 441.39 432.46 442.2 431.43 442.78 430.03 441.98"></polygon><path class="cls-22" d="M425.18,390.87a10.42,10.42,0,0,1,.76,7s0-.63-.34-.67c0,.63-.71,1.06-.71,1.06L422.65,393l1.65-2.45A.66.66,0,0,1,425.18,390.87Z"></path><path class="cls-11" d="M437.78,410.27c-2.41-.11-9.93-5.13-9.93-5.13l-.4-2.33,2.92-1.11s.63.92,1.06,1c1.86,1.1,3.42,2.21,3.42,2.21Z"></path><path class="cls-11" d="M434.85,404.89s-.26-1.84-.47-3.19c0-.08-1.47-.32-1.37-.68a2.21,2.21,0,0,1,2.61-2.26c.17.5.45,1.72.54,2,1.26,2.89,2.92,5,3.15,7.31.11,1.12-.92,2.26-1.53,2.23a6.72,6.72,0,0,1-1.08-1.1A11.68,11.68,0,0,1,434.85,404.89Z"></path><path class="cls-12" d="M434.85,404.89a12.48,12.48,0,0,0,1.58,3.87A4.94,4.94,0,0,1,434.85,404.89Z"></path><path class="cls-22" d="M424,400c-1.66,3.26,4.14,5.69,4.14,5.69a4.5,4.5,0,0,1,2.48-3.94S425.71,396.77,424,400Z"></path><polygon class="cls-11" points="422.83 399.45 423.19 403.18 419.55 403.99 416.26 401.59 416.07 400.61 416.22 398.16 420.27 397.06 422.16 398.16 422.83 399.45"></polygon><path class="cls-3" d="M430,461.85c.57,1.27,3.18,2.81,4.12,3.36,1.19.7,1.25,2.45.62,2.78s-2.76-.12-3.9-.66a9.94,9.94,0,0,1-2.28-1.68,6.73,6.73,0,0,1-2.28-.6c-.56-.42-.68-1.14-.66-2.94Z"></path><path class="cls-11" d="M425.66,462.11a45.91,45.91,0,0,0-.28-7.16l4,.21a19.94,19.94,0,0,0,.64,6.69C429.68,464.09,425.86,463.33,425.66,462.11Z"></path><path class="cls-14" d="M425.38,455c-.35-3.44-.7-5.26.94-8.33.34.72-4.12-12.75-4.12-15.52a41.16,41.16,0,0,0-.47-5.67s5.65-5.91,7.23-4.78c3.24,12.59.72,18.63,2.16,25.73.29,1.44-1.3,4.69-1.72,8.78,0,0-.23,1-1.85,1C425.65,456.14,425.38,455,425.38,455Z"></path><path class="cls-3" d="M412.2,460.53a6.27,6.27,0,0,0-.1,2.14c.2.6,1.39,1.26,1.39,1.26a8.67,8.67,0,0,0,2.21,2.54c1.37.83,4.3.83,4.61-.22s-4-4.55-4.54-5.95Z"></path><path class="cls-11" d="M415.77,460.3a28.35,28.35,0,0,1,0-6.84l-3.65.11a24.82,24.82,0,0,1,.22,5.92c0,.23-.09.63-.15,1C412.44,462.24,416.35,462.42,415.77,460.3Z"></path><path class="cls-16" d="M415.78,453.46c.41-3.46,1.11-6.66,1.11-6.66s4.68-7.52,5.31-15.7c5.62-3.33,6.76-10.45,6.76-10.45l-11.84.7a13.62,13.62,0,0,0-3.56,6.09c-.76,3.47-.26,15.76-.26,15.76a13.93,13.93,0,0,0-2.08,4.05c-.23,1.07.48,3.37.91,6.32,0,0,.33,1,2,.88S415.78,453.46,415.78,453.46Z"></path><path class="cls-3" d="M417.12,421.35l-1.05,1.16s4.78,5.88,12.89-1.86c-.12-.52-.36-1.52-.36-1.52Z"></path><path class="cls-4" d="M421.73,399.62s1.43,2.61.26,3.48-4-.45-5.79-2.05a24.81,24.81,0,0,1-3.24,3.6,14,14,0,0,0-.6,4.28c.93,6.09,5.21,8.92,4.76,12.42,4.32,4.88,11.48-2.22,11.48-2.22l-.27-6.3a5.57,5.57,0,0,0,1.82-3.66c0-2-5-7.55-5.88-9.72S421.73,399.62,421.73,399.62Z"></path><path class="cls-17" d="M428.33,412.83s-6.14,2.91-5.82,3.45S428.33,412.83,428.33,412.83Z"></path><path class="cls-11" d="M424.59,392a5,5,0,0,1,.29,2.31c.41.63.33,4.05-.38,5.69a1.51,1.51,0,0,1-1.46.77,8.84,8.84,0,0,1-5.11-2l-.43-5.07,1.62-2.59,3.22-1.1,1.82.32A2.19,2.19,0,0,1,424.59,392Z"></path><path class="cls-22" d="M422.43,392c-3.29-.57-2.7,2.81-2.7,2.81a3.56,3.56,0,0,1-.45-.78c-1.06,1.5,0,4,0,4l-.68-.68a15.94,15.94,0,0,0,.41,3.92,3.27,3.27,0,0,1-2.43-.77,3.41,3.41,0,0,1-.72,1c-5.54-6.21-.54-13.1.72-12.65,1.08-2.07,2.53-1.71,3.76-1.45a8.38,8.38,0,0,1,4.84,3.55l-.59,1.09C423.85,390.24,422.43,392,422.43,392Z"></path><path class="cls-11" d="M425.3,405.57s-.67-1.7-.3-2.31,1.53-.42,1.53-.42Z"></path><path class="cls-11" d="M423.46,418c-1.49.23-8.37-6-8.37-6l-.54-2.39,1-2.65,2.83,1.32s3.72,3.9,4,4.21Z"></path><polygon class="cls-3" points="428.96 404.55 427.71 403.83 427.71 400.61 428.96 401.32 428.96 404.55"></polygon><polygon class="cls-3" points="433.63 401.85 428.95 404.55 428.96 401.32 433.63 398.63 433.63 401.85"></polygon><polygon class="cls-27" points="428.96 401.32 427.71 400.61 432.38 397.91 433.63 398.63 428.96 401.32"></polygon><polygon class="cls-3" points="431.02 399.79 430.38 399.42 430.38 398.76 431.02 399.14 431.02 399.79"></polygon><polygon class="cls-3" points="432.06 399.19 431.02 399.79 431.02 399.14 432.06 398.54 432.06 399.19"></polygon><polygon class="cls-28" points="431.81 398.81 431.81 399.22 431.17 399.59 431.17 399.45 431.69 399.15 431.69 398.89 431.81 398.81"></polygon><polygon class="cls-27" points="431.69 398.89 431.69 399.15 431.17 399.45 431.17 399.19 431.69 398.89"></polygon><polygon class="cls-27" points="431.02 399.14 430.38 398.76 431.42 398.16 432.06 398.54 431.02 399.14"></polygon><path class="cls-29" d="M431.68,401.46c0,.48.34.68.76.44a1.68,1.68,0,0,0,.75-1.32c0-.48-.33-.67-.75-.43A1.67,1.67,0,0,0,431.68,401.46Z"></path><path class="cls-30" d="M433.07,400.7a1.32,1.32,0,0,1-.61,1c-.22.13-.41.1-.51,0a.48.48,0,0,0,.31-.08,1.32,1.32,0,0,0,.61-1,.48.48,0,0,0-.09-.31C433,400.29,433.07,400.45,433.07,400.7Z"></path><path class="cls-27" d="M432.87,400.58a1.32,1.32,0,0,1-.61,1,.23.23,0,0,1-.4-.23,1.33,1.33,0,0,1,.6-1,.52.52,0,0,1,.32-.08A.48.48,0,0,1,432.87,400.58Z"></path><path class="cls-3" d="M429.73,400.35a.34.34,0,0,1-.34,0c-.05,0-.07-.06-.07-.09h0V400h0a.1.1,0,0,1,.05,0,.4.4,0,0,1,.34,0,.12.12,0,0,1,0,.05h0v.21A.1.1,0,0,1,429.73,400.35Z"></path><path class="cls-3" d="M429.73,400.14a.1.1,0,0,0,0-.19.34.34,0,0,0-.34,0,.1.1,0,0,0,0,.19A.4.4,0,0,0,429.73,400.14Z"></path><path class="cls-3" d="M429.25,400.73a.55.55,0,0,1-.53,0,.19.19,0,0,1-.12-.15h0v-.34h0s0-.05.07-.06a.55.55,0,0,1,.53,0,.22.22,0,0,1,.09.07h0v.34A.24.24,0,0,1,429.25,400.73Z"></path><path class="cls-27" d="M429.25,400.4c.15-.08.15-.22,0-.3a.55.55,0,0,0-.53,0c-.15.08-.15.22,0,.3A.55.55,0,0,0,429.25,400.4Z"></path><path class="cls-11" d="M422.38,412.45c1-2.65,1.89-4,2.8-6.7a19.27,19.27,0,0,1,1.48-4.33s.86-2.27,1.4-2.43,1.59,1.15,1.48,1.35-1.17-.22-1.17-.22l-.18,1.3s1.8.41,1.94,1.13a3.17,3.17,0,0,1-.68,2.25c-.45.56-1.66,1.81-2,1.7-.83,2.81-1.24,11-4,11.46A4,4,0,0,1,422.38,412.45Z"></path><path class="cls-12" d="M422.38,412.45a2.7,2.7,0,0,0-.48,3.88A5.31,5.31,0,0,1,422.38,412.45Z"></path><path class="cls-4" d="M412.3,405.25c-2.2,2.93,2.79,6.71,2.79,6.71s.72-3.11,3.33-3.72C418.42,408.24,414.5,402.32,412.3,405.25Z"></path><path class="cls-11" d="M432.71,397.42c-.89.2-.4,2.07.15,2.7.77.87,2.22.06,2.22.06a1.32,1.32,0,0,0,.54-1.42A3.12,3.12,0,0,0,432.71,397.42Z"></path><path class="cls-11" d="M187.17,257.5h-1.31l-.87,1.3a6.54,6.54,0,0,0,.21,4.69c.25.57.74.52,1.4.31a1.53,1.53,0,0,0,.89-1l-.11-1.71C188.53,259,188,257.5,187.17,257.5Z"></path><path class="cls-11" d="M187.27,258.83c-.06.88-1.09,1.15-1.44,1.84s.87,1.31.83,2a.48.48,0,0,1-.94.2c-.06-.16-1.56-2-1.33-2.62.81-2.16,1.46-3,2.11-3S187.34,258,187.27,258.83Z"></path><path class="cls-3" d="M195.87,216.47a7.56,7.56,0,0,0-4,2.7c-1.88,2.74-1,9.68-2.35,16.62-.89,4.64-1.88,9.83-1.88,9.83s4.48-.58,5.54-1.24c1.34-.84,10.54-7.18,10.54-7.18s-.39-14.26-.38-14.67S195.87,216.47,195.87,216.47Z"></path><path class="cls-3" d="M192.65,232.55s-1.94,0-2.75,3.91-.26,8.92-.68,10c-.33.85-3.39,11.12-3.39,11.12a2.56,2.56,0,0,0,.57.68,6.24,6.24,0,0,0,1.82.52l4.84-10.19,1.37-12.74S194.08,232,192.65,232.55Z"></path><path class="cls-13" d="M199.69,287.34a16.6,16.6,0,0,1,.56,3.15c0,.82-1.17,1.72-1.17,1.72s-.42,1.29.15,1.8,2,0,2.89-.32a3.11,3.11,0,0,0,1.64-1.24,5.22,5.22,0,0,0,.39-1.8l-.1-1.7,2,2.28.9-.72c.08-.06-2.36-3.25-2.36-3.25a7,7,0,0,0-2.53-2.3C200.56,284.25,199.69,287.34,199.69,287.34Z"></path><path class="cls-3" d="M198.21,260.22c0,.44-5.83,12.28-4.79,13.31,2.8,2.81,10.56,12,10.6,13a16,16,0,0,1-2.91,1.77c-1.81.73-4.27-2.29-4.27-2.29-3-4.37-10.62-8.31-9.77-13.53,1-6.45,3-14.05,3-14.05l2.24-8.07S198,254.37,198.21,260.22Z"></path><path class="cls-13" d="M197.46,289.66s-1.63,1.9-2.34,2.81c-.5.65-2.67,2.74-2.67,2.74a1.47,1.47,0,0,0-.48,1.27c.14.76.41.45,1.36.45.66,0,2.41-.17,3.38-.17.65,0,1.09-.91,1.09-.91l1.25-2.22.17,3h1.15c.1,0,.17-4,.17-4a7.79,7.79,0,0,0-.64-3.37C199.15,287.79,197.46,289.66,197.46,289.66Z"></path><path class="cls-3" d="M201,254.18c.65,2.16,2.75,3.48,2.71,9.9,0,.83-2.93,23.08-3.53,26.05a2.6,2.6,0,0,1-1.62,1.51c-1.84.65-2.53,0-2.53,0-.05-.5-.34-31.49-.34-31.49s1.59-3.92,1.56-4.16l1-2.67Z"></path><path class="cls-3" d="M192.33,232.73l-1.39,6.54a13.15,13.15,0,0,0-.63,3.19,15.52,15.52,0,0,0,1.48,3.78c.77,1.61-1.78,11.9-1.78,11.9s0,1.55,2.35,2.42a16.44,16.44,0,0,0,11.28-.44c.22-.2-.21-3.93-1.23-7.5l-.79-3.46a4.83,4.83,0,0,1,.08-2.4l1.44-4.61s1.48-4.49.19-6a17.16,17.16,0,0,0-4.82-3.85c-.28-.17-1.06-.13-1.81-.33C196.7,232,192.8,232,192.33,232.73Z"></path><path class="cls-3" d="M201,259.75c-.35.27,1.59,2.46,2.42,1.41,5.15-6.48,4.69-12.64,4.69-12.64l-2.42-8.59c-.47-2-2-4.35-3.55-3.84-2,.62-1.67,3.63-.93,5.15s2.22,6.26,3.23,8.06C204.4,249.3,201.8,259.11,201,259.75Z"></path><path class="cls-31" d="M193,233.06c-.26.78.55,1.79,2.34,2.5,1.15.45,7.88,2,9,1.64.31-.11-3.51-3.36-4.29-4.6l-1.75-5.39-4.5.58s.6,3.22.86,4.32C194.72,232.41,193.26,232.33,193,233.06Z"></path><path class="cls-11" d="M195.51,219.64c-3,.15-3.49,2.52-3.49,4.19,0,1.16.26,3.33.26,3.33.4,2.13,1.13,3.65,2.28,4,1.44.42,3.39-.91,4.94-2.86a6.23,6.23,0,0,0,1.56-3.09l.26-5.75S197.11,219.56,195.51,219.64Z"></path><path class="cls-3" d="M195.86,216.46s7.39-.79,7.61,6.38c.31,10-3.55,20.88-3.83,22.24,0,.24-.89,3.31-2.81,3.35,0,0,.71-5.61,1.17-9.05,1.17-8.53.37-13.08-.46-14.35a34.45,34.45,0,0,0-4-4.06c-.77-.69-.47-2,1.11-3.83C195,216.68,196,216.47,195.86,216.46Z"></path><path class="cls-11" d="M202.61,260.52l-.31-.08-1.22-.55-2.14,2.62s-.84,2.29,0,3.22c1.14,1.21,1.46.53,1.46.53.28-.11.65-1.55.87-1.85.1-.14,1.09-1.77,1.09-1.77C202.88,261.8,203.05,261.13,202.61,260.52Z"></path><path class="cls-3" d="M198.31,261.93l4.58,2.19-.27,4.32s-.15,1.87-2-.05S197.58,265.84,198.31,261.93Z"></path><path class="cls-32" d="M178.46,300.64l2.12,1s4.26,1.52,5.13,2a1.85,1.85,0,0,1,.79,1.24,2.18,2.18,0,0,1-.09,1.14,3.44,3.44,0,0,1-1.92,1.24,17.33,17.33,0,0,1-4.47-.3c-.39-.19-6.65-2.64-6.65-2.64a2.61,2.61,0,0,1-.16-.67l-.37-3Z"></path><path class="cls-33" d="M178.88,304.08a.14.14,0,0,1-.19.05s-.09-.09-.06-.14a6.62,6.62,0,0,1,1.63-1.63,2.46,2.46,0,0,1,1.52-.38.12.12,0,0,1,.12.14.14.14,0,0,1-.15.11,2.34,2.34,0,0,0-1.36.34A6.08,6.08,0,0,0,178.88,304.08Z"></path><path class="cls-33" d="M179.64,304.31a.15.15,0,0,1-.19.05s-.09-.09,0-.14a6.37,6.37,0,0,1,1.62-1.63,2.47,2.47,0,0,1,1.52-.38.12.12,0,0,1,.12.14.13.13,0,0,1-.15.11,2.34,2.34,0,0,0-1.36.34A6.44,6.44,0,0,0,179.64,304.31Z"></path><path class="cls-33" d="M180.36,304.69a.13.13,0,0,1-.18,0c-.05,0-.09-.09-.06-.14a6.53,6.53,0,0,1,1.62-1.63,2.62,2.62,0,0,1,1.52-.38c.08,0,.14.07.12.14a.13.13,0,0,1-.15.11,2.29,2.29,0,0,0-1.36.35A6.08,6.08,0,0,0,180.36,304.69Z"></path><path class="cls-33" d="M186.53,305.06c0,.36-1.2,1-1.93,1.25-2.48.76-10-1.56-10.36-1.68-.83-.3-1-.63-1-.63a6.41,6.41,0,0,0,.21.89s.16.84.64,1.05,3.36.77,4.14.94c0,0,4.1,1.12,6.49.51.67-.18,1.53-.46,1.75-1.25C186.54,306,186.53,305.05,186.53,305.06Z"></path><path class="cls-32" d="M166.11,305.2l3.91,2.63s1.8,1.2,2.65,1.83a2,2,0,0,1,.67,1.41,2.57,2.57,0,0,1-.24,1.18,4.82,4.82,0,0,1-2.19,1.05,7.13,7.13,0,0,1-4.64-.91c-.38-.24-6.56-3.07-6.56-3.07a6.38,6.38,0,0,1-.14-1.29v-3.19Z"></path><path class="cls-33" d="M165.59,309.08a.16.16,0,0,1-.21,0s-.09-.11,0-.16a7.23,7.23,0,0,1,1.9-1.7,2.93,2.93,0,0,1,1.72-.32.14.14,0,0,1,.13.17.16.16,0,0,1-.18.1,2.63,2.63,0,0,0-1.54.3A6.78,6.78,0,0,0,165.59,309.08Z"></path><path class="cls-33" d="M166.49,309.61a.14.14,0,0,1-.2,0s-.09-.1-.06-.15a7.48,7.48,0,0,1,1.93-1.68,2.87,2.87,0,0,1,1.72-.3.15.15,0,0,1,.13.17.17.17,0,0,1-.18.11,2.54,2.54,0,0,0-1.54.27A7,7,0,0,0,166.49,309.61Z"></path><path class="cls-33" d="M167.26,310.07a.15.15,0,0,1-.21,0c-.05,0-.09-.11-.05-.16a7.39,7.39,0,0,1,2-1.57,2.9,2.9,0,0,1,1.73-.21.13.13,0,0,1,.11.17.14.14,0,0,1-.18.1,2.63,2.63,0,0,0-1.55.2A6.73,6.73,0,0,0,167.26,310.07Z"></path><path class="cls-33" d="M173.33,311.19c0,.08-.13.72-2.49,1.35-3.83,1-10-3-10.28-3.19a3.75,3.75,0,0,1-1-.86,6.7,6.7,0,0,0,.1.9s.06.9.53,1.18,4.18,2,5,2.31c0,0,3.45,1.34,5.88.7.77-.2,2-.53,2.23-1.36C173.3,312.22,173.34,311.16,173.33,311.19Z"></path><path class="cls-3" d="M173,263.37c.52,3.85,4.63,18.32,4.9,23.75.21,4.27,1.53,13.76,1.5,14-.33,2.14-5.55,3.4-6.57,1,0,0-1-11.34-1.91-14.09-1.77-5.21-7.09-23.23-7.09-23.23Z"></path><path class="cls-3" d="M168.11,263.62,166.86,289l.25,16.86c-.06.86-.79,1.38-2.24,1.55a5.9,5.9,0,0,1-3-.38c-1.15-.4-2.35-1.3-2.41-2.4L159,280.76l-.32-17.92Z"></path><path class="cls-4" d="M180.19,255.62a8.53,8.53,0,0,1,.17-1.83s-3.55-6.3-5.85-10.76c-2.13-4.14-3.84-3.32-4.08-3.19V240l2.09,10.27s2,3.6,2.41,4.19a1,1,0,0,1,.2,1,4.75,4.75,0,0,1,4.09-.57A1.92,1.92,0,0,1,180.19,255.62Z"></path><path class="cls-4" d="M158.75,271.57s-2.71-18.89-3.31-23.46a3,3,0,0,1,.94-2.6c.74-.75,6.47-5.46,6.47-5.46s.45-.61.43-.6l3.3-.47s3.54.13,4.61,1.8c1.57,2.45,2.11,2.73,2.52,7.85l.87,20.62c.23,1,.59,2,.2,2.23,0,0-2.65,2.85-8.42,2.87-4.12,0-6.18-1.5-6.18-1.5C159,272.09,159,271.94,158.75,271.57Z"></path><path class="cls-34" d="M162.16,235.54l-.5,6.81s.75,2.64,2.87,3.38c2.43.84,3.29-.54,3.09-1.92s1.23-4.77,1.23-4.77Z"></path><path class="cls-3" d="M168.31,234.46c-.05,0-.05-.08,0-.12l.92-.72a.7.7,0,0,1,.59-.14l2.81.8s0,0,0,0l-.07.25s0,0,0,0l-2.87-.81a.32.32,0,0,0-.29.07l-.76.59a.26.26,0,0,1-.23.06Z"></path><path class="cls-34" d="M167.14,229.33h0l-4.46.52.84,8.07c.12.54.15,1,.3,1.5a2.24,2.24,0,0,0,1.12,1.35,10,10,0,0,0,2.33,1.07c.5.13,3.53,1.26,4.07-1.85.07-.45.49-7.64.49-7.64l-.19-4.33Z"></path><path class="cls-3" d="M173.68,227.94c-.31.22-1.62.4-1.41,2.73.15,1.66-.45,2-.45,2s0-.94,0-1.31c-.08-.66-.82-.49-1.3-.33a24.32,24.32,0,0,0-3.16,1.25,2.31,2.31,0,0,0-1.52,2l-.15,1.47c0,.45-.06,1.19-.42,1.19s-.24,0-.39-.41c0,0-.94-2-1.65-1.65s-.29,1.94-.23,2l-1.06,2c0,.05-.19-.59-.52-1.55-.54-1.58-.72-2.35-.91-2.88a14.22,14.22,0,0,1-1.06-4c0-.75,2.3-5.23,6.11-4.87.23,0,1.79.33,2,.37s3.48.88,3.42.94a2,2,0,0,0-.49.78c0-.07.57-.61,1.08-.46C173.07,227.68,173.68,227.94,173.68,227.94Z"></path><path class="cls-3" d="M163.56,238a1.35,1.35,0,0,1,1.3.92,5,5,0,0,0,2.14,1.78c.95.38,2.07,1,2.66.48.32-.27.42-.93.63-1.28s.54.57.72.55c.34,0,.42-1.34.42-1.34a4.74,4.74,0,0,1-.27,2.09,2.84,2.84,0,0,1-3.2,1.06c-1.92-.46-3.48-1.15-3.85-1.94A6.36,6.36,0,0,1,163.56,238Z"></path><path class="cls-3" d="M161.77,237c-.05,0-.06-.13,0-.17l1.28-1.32a.93.93,0,0,1,.7-.16l2.9.39s0,0,0,0l0,.25s0,0,0,0l-3-.4a.35.35,0,0,0-.28.11L162.22,237a.24.24,0,0,1-.21.09Z"></path><path class="cls-3" d="M171.84,235.63l-.64.25a.82.82,0,0,1-.7-.07.74.74,0,0,1-.3-.63,1.77,1.77,0,0,1,0-.23v-.23a1.17,1.17,0,0,1,.76-1l.08,0,.85-.39a.58.58,0,0,1,.56,0,.8.8,0,0,1,.24.71c0,.37,0,.45,0,.46A1.21,1.21,0,0,1,171.84,235.63Zm-.75-1.56c-.05,0-.54.24-.53.65v.44a.43.43,0,0,0,.15.35.48.48,0,0,0,.37,0l.58-.22,0,0a.85.85,0,0,0,.6-.78s0-.08,0-.5-.07-.37-.09-.39-.12,0-.18,0l-.89.41Z"></path><g class="cls-35"><path class="cls-3" d="M167,235.69a.67.67,0,0,0-.4.64.82.82,0,0,0,0,.21.31.31,0,0,1,0,.12.53.53,0,0,0,.2.42,1,1,0,0,0,.66.11,4,4,0,0,0,.81-.25l0,0a2.11,2.11,0,0,0,.94-1,1.54,1.54,0,0,0,.08-.52.5.5,0,0,0-.12-.42.41.41,0,0,0-.31,0l-1.91.68Z"></path></g><path class="cls-36" d="M171,233.93c-.07,0-.63.28-.62.75V235a1.69,1.69,0,0,0,0,.23.51.51,0,0,0,.16.41.63.63,0,0,0,.44,0l.67-.26,0,0a1,1,0,0,0,.71-.9,5.69,5.69,0,0,1,0-.57c0-.35-.08-.44-.1-.45a.21.21,0,0,0-.2,0l-1,.47Z"></path><path class="cls-3" d="M170.37,235.1s.14.24-.32.4c-.61.21-.77-.07-.77-.07Z"></path><path class="cls-34" d="M163.34,234.53a1.28,1.28,0,0,1,1.41,1l.3,2.15s.09.71-.26.78a1.49,1.49,0,0,1-1.56-.89l-.53-1C162.29,235.8,162.24,234.65,163.34,234.53Z"></path><path class="cls-3" d="M168.43,237.23l0,0a3.19,3.19,0,0,1-.86.26h0a1.21,1.21,0,0,1-.89-.17.87.87,0,0,1-.33-.67.26.26,0,0,1,0-.07,1,1,0,0,1,0-.27,1,1,0,0,1,.58-.94l.06,0,1.81-.65a.71.71,0,0,1,.63.05.77.77,0,0,1,.27.71,1.86,1.86,0,0,1-.11.64A2.33,2.33,0,0,1,168.43,237.23Zm-1.4-1.51a.64.64,0,0,0-.38.61.58.58,0,0,0,0,.19s0,.06,0,.12a.57.57,0,0,0,.19.41.87.87,0,0,0,.63.09,3.13,3.13,0,0,0,.77-.24h0a2,2,0,0,0,.89-.93,1.16,1.16,0,0,0,.08-.5.46.46,0,0,0-.11-.39.36.36,0,0,0-.29,0l-1.83.65Z"></path><g class="cls-35"><path class="cls-3" d="M171.84,235.63l-.64.25a.82.82,0,0,1-.7-.07.74.74,0,0,1-.3-.63,1.77,1.77,0,0,1,0-.23v-.23a1.17,1.17,0,0,1,.76-1l.08,0,.85-.39a.58.58,0,0,1,.56,0,.8.8,0,0,1,.24.71c0,.37,0,.45,0,.46A1.21,1.21,0,0,1,171.84,235.63Zm-.75-1.56c-.05,0-.54.24-.53.65v.44a.43.43,0,0,0,.15.35.48.48,0,0,0,.37,0l.58-.22,0,0a.85.85,0,0,0,.6-.78s0-.08,0-.5-.07-.37-.09-.39-.12,0-.18,0l-.89.41Z"></path></g><path class="cls-3" d="M167.17,241.22s1.31-1.84,1.68-2.18a4,4,0,0,1,1.09-.69c.38-.17,1.31-.5,1.31-.5s.25-.09.23.26,0,1.39,0,1.39l-.15.71s.14-1.78-.26-1.69a9.57,9.57,0,0,0-1.45.61,14.24,14.24,0,0,0-1.47,2.42l-1-.49Z"></path><path class="cls-4" d="M180.33,253.74c-.15-.32-.68-.59-1-.79-1.51-.84-5.17,1-5.17,1l-6.69.95a6.64,6.64,0,0,0-1.84.82c-1.13,1.12-.87,3.41-.87,3.41s9.36-.07,13.19-1C179.47,257.78,181.35,255.87,180.33,253.74Z"></path><path class="cls-34" d="M168,255a38.27,38.27,0,0,0-4.38-.14c-.76.14-1.25.9-1.8,1.8a7,7,0,0,0-1,1.81,1.34,1.34,0,0,0,.34,1.32c.42.28,4-1.46,4-1.46l3.48-1.73S169.05,255.3,168,255Z"></path><path class="cls-34" d="M168.15,256.28l1.28-1.36,1.36-1.42a5.41,5.41,0,0,1,1-.9,3.51,3.51,0,0,1,2.74.1,11.43,11.43,0,0,1,1.6.83s1,.84-.94,1.26c-.85.18-4.69,3.57-4.69,3.57Z"></path><path class="cls-4" d="M157.32,245.46a2.46,2.46,0,0,1,2.87,1.81c.66,2.26-.14,9.73-.17,10-.28,2.43,1.36,2.06,1.74,1.88,1.09-.54,7-3.62,7-3.62a3.51,3.51,0,0,1,1.28.21,2.63,2.63,0,0,1,1.39,2.64s-9.76,7.28-13,7.5c-3.06.21-3.93-2.18-3.89-6.49,0-1.77,0-8.44,0-8.44S154.43,245.82,157.32,245.46Z"></path><path class="cls-3" d="M154.78,291l-22.66-13.08a.84.84,0,0,0-1,0l-6.77,3.91,6.48,8.35v4a2.83,2.83,0,0,0,1.26,2.18L138.5,300l10.4,13.39,6.69-3.87a.85.85,0,0,0,.44-.85V293.18A2.79,2.79,0,0,0,154.78,291Z"></path><path class="cls-13" d="M152,292.63l-22.66-13.08a.84.84,0,0,0-1,0l-.26.15a.9.9,0,0,1,.85.1l22.65,13.08a2.8,2.8,0,0,1,1.26,2.17v15.49a.9.9,0,0,1-.36.81h0l.3-.18a.85.85,0,0,0,.44-.85V294.81A2.79,2.79,0,0,0,152,292.63Z"></path><path class="cls-25" d="M149.26,312.57c0,.8-.57,1.13-1.26.73l-22.65-13.08a2.8,2.8,0,0,1-1.26-2.18V282.56c0-.8.57-1.13,1.26-.73L148,294.91a2.8,2.8,0,0,1,1.26,2.18Z"></path><polygon class="cls-24" points="137.81 282.43 138.36 282.09 137.81 281.77 137.27 282.09 137.81 282.43"></polygon><polygon class="cls-25" points="137.81 285.09 138.36 284.79 138.36 282.09 137.81 282.43 137.81 285.09"></polygon><polygon class="cls-25" points="137.81 285.09 137.27 284.79 137.27 282.09 137.81 282.43 137.81 285.09"></polygon><path class="cls-13" d="M142.5,286.22h0a.54.54,0,0,0,.28-.08,1.43,1.43,0,0,0,.64-1.11.54.54,0,0,0-.07-.27v-.05l-4.7-2.72a.48.48,0,0,0-.45,0,1.44,1.44,0,0,0-.62,1.11.46.46,0,0,0,.17.42h0Z"></path><path class="cls-13" d="M142.3,285.83a1.37,1.37,0,0,1,.64-1.09c.35-.2.63,0,.63.36a1.31,1.31,0,0,1-.63,1.09C142.58,286.4,142.3,286.22,142.3,285.83Z"></path><polygon class="cls-24" points="143.26 285.57 143.81 285.23 143.26 284.91 142.71 285.23 143.26 285.57"></polygon><polygon class="cls-25" points="143.26 288.23 143.81 287.93 143.81 285.23 143.26 285.57 143.26 288.23"></polygon><polygon class="cls-25" points="143.26 288.23 142.71 287.93 142.71 285.23 143.26 285.57 143.26 288.23"></polygon><polygon class="cls-13" points="144.4 311.22 142.51 310.13 142.51 291.75 144.4 292.84 144.4 311.22"></polygon><polygon class="cls-13" points="151.14 288.91 149.26 287.82 142.51 291.75 144.4 292.84 151.14 288.91"></polygon><polygon class="cls-26" points="145.59 289.95 145.59 289.42 148.84 289.72 148.82 290.25 147.47 291.04 145.59 289.95"></polygon><polygon class="cls-3" points="145.59 289.42 146.95 288.63 148.84 289.72 147.46 290.5 145.59 289.42"></polygon><polygon class="cls-13" points="130.83 303.38 128.95 302.29 128.95 283.91 130.83 285 130.83 303.38"></polygon><polygon class="cls-13" points="137.58 281.07 135.69 279.98 128.95 283.91 130.83 285 137.58 281.07"></polygon><polygon class="cls-26" points="132.02 282.12 132.02 281.58 135.27 281.88 135.25 282.41 133.9 283.2 132.02 282.12"></polygon><polygon class="cls-3" points="132.02 281.58 133.38 280.8 135.27 281.88 133.89 282.66 132.02 281.58"></polygon><path class="cls-2" d="M150.46,351.75c0-3.1,5.09-14.39,22.78-16.78s14.48,10.09,5,8.39-25.27,3-25.57,10.59C152.16,361.54,150.46,351.75,150.46,351.75Z"></path><path class="cls-4" d="M343.38,410.7,316,394.91l23.38-12.39,10.69,12.29-2.4,10.69Z"></path><path class="cls-3" d="M343.38,410.7,316,394.91l23.38-12.39,10.69,12.29-2.4,10.69Z"></path><path class="cls-4" d="M314.11,433.87h0a8.46,8.46,0,0,0,3.29,1c7.6.7,17.19-7.89,21.58-19.18,3.7-9.39,2.4-17.68-2.59-20.58h0l-10.39-6h0a8,8,0,0,0-3.2-1c-7.59-.7-17.19,7.89-21.58,19.18-3.7,9.39-2.4,17.68,2.5,20.48h0Z"></path><g class="cls-37"><path class="cls-3" d="M314.11,433.87h0a8.46,8.46,0,0,0,3.29,1c7.6.7,17.19-7.89,21.58-19.18,3.7-9.39,2.4-17.68-2.59-20.58h0l-10.39-6h0a8,8,0,0,0-3.2-1c-7.59-.7-17.19,7.89-21.58,19.18-3.7,9.39-2.4,17.68,2.5,20.48h0Z"></path></g><path class="cls-4" d="M339,415.79c4.4-11.19,1.8-20.88-5.79-21.58S316,402.1,311.61,413.39s-1.8,20.88,5.79,21.58S334.69,427,339,415.79Z"></path><path class="cls-4" d="M339.78,416.49c4.1-10.69,1.7-19.78-5.49-20.38S318,403.6,313.81,414.19s-1.7,19.78,5.49,20.38S335.59,427.18,339.78,416.49Z"></path><g class="cls-37"><path class="cls-38" d="M332.59,400.51c-5.5-.5-12.59,5.79-15.79,14s-1.3,15.29,4.2,15.79,12.59-5.8,15.78-14S338.08,401,332.59,400.51Z"></path></g><g class="cls-37"><path class="cls-38" d="M329.49,403.9c-3.89-.3-9,4.1-11.29,10s-.9,10.89,3,11.19,9-4.09,11.29-10S333.39,404.3,329.49,403.9Z"></path></g><path class="cls-1" d="M318.9,428.38a5.38,5.38,0,0,0,2.6.9c5.19.5,11.69-5.4,14.69-13,2.49-6.29,1.69-11.89-1.6-13.89-.1,0-.1-.1-.2-.1s-.1-.1-.2-.1-.1-.1-.2-.1-.1-.1-.2-.1-.1-.1-.2-.1-.1-.1-.2-.1-.1-.1-.2-.1a5.38,5.38,0,0,0-2.6-.9c-5.19-.49-11.69,5.4-14.69,13-2.39,6.3-1.69,11.89,1.6,13.89.1,0,.1.1.2.1s.1.1.2.1.1.1.2.1.1.1.2.1.1.1.2.1.1.1.2.1A.31.31,0,0,1,318.9,428.38Zm-1.7-7.49a11.57,11.57,0,0,1,.7-3.9c.2-.6,2.4-1.5,3.9-1.3a1.45,1.45,0,0,1,.2.7c0,2.1-3,5.2-4.6,6.39A5.25,5.25,0,0,1,317.2,420.89ZM334.89,409a11.5,11.5,0,0,1-.7,3.89c-.2.7-2.4,1.5-3.9,1.3a1.45,1.45,0,0,1-.2-.7c0-2.09,3-5.19,4.6-6.39A5.4,5.4,0,0,1,334.89,409Zm-15.09,3.39a16.35,16.35,0,0,1,4.7-6.19c.5,1.6.6,4.3-.8,6a3.1,3.1,0,0,1-3.6,1C319.8,412.89,319.6,412.59,319.8,412.39Zm7.39,1.7c0-.1-.1-.1-.2-.1s-.1-.1-.2-.1-.1-.1-.2-.1-.1-.1-.2-.1-.1-.1-.2-.1h0a2.07,2.07,0,0,1,1-.6A2,2,0,0,1,327.19,414.09Zm-2.29,1.7c.1,0,.1.1.2.1s.1.1.2.1.1.1.2.1.1.1.2.1a.35.35,0,0,0,.2.1v.1a2.66,2.66,0,0,1-1,.6A2.4,2.4,0,0,1,324.9,415.79Zm7.49,1.8a16.87,16.87,0,0,1-2.2,3.8,12.71,12.71,0,0,1-2.4,2.29c-.5-1.59-.6-4.29.7-6a3.1,3.1,0,0,1,3.6-1A.86.86,0,0,1,332.39,417.59Zm-4.9-7.39c-.6-1.9.4-6.1,1.1-6.4a4.51,4.51,0,0,1,3-.7,1.75,1.75,0,0,1,.5.1l.3.3C332.79,403.8,329.69,409.4,327.49,410.2Zm-2.89,9.49c.6,1.9-.4,6.09-1.1,6.49a4.51,4.51,0,0,1-3,.7,1.75,1.75,0,0,1-.5-.1l-.3-.3C319.4,426.08,322.5,420.49,324.6,419.69Z"></path><path class="cls-2" d="M318.9,428.38a5.38,5.38,0,0,0,2.6.9c5.19.5,11.69-5.4,14.69-13,2.49-6.29,1.69-11.89-1.6-13.89-.1,0-.1-.1-.2-.1s-.1-.1-.2-.1-.1-.1-.2-.1-.1-.1-.2-.1-.1-.1-.2-.1-.1-.1-.2-.1-.1-.1-.2-.1a5.38,5.38,0,0,0-2.6-.9c-5.19-.49-11.69,5.4-14.69,13-2.39,6.3-1.69,11.89,1.6,13.89.1,0,.1.1.2.1s.1.1.2.1.1.1.2.1.1.1.2.1.1.1.2.1.1.1.2.1A.31.31,0,0,1,318.9,428.38Zm-1.7-7.49a11.57,11.57,0,0,1,.7-3.9c.2-.6,2.4-1.5,3.9-1.3a1.45,1.45,0,0,1,.2.7c0,2.1-3,5.2-4.6,6.39A5.25,5.25,0,0,1,317.2,420.89ZM334.89,409a11.5,11.5,0,0,1-.7,3.89c-.2.7-2.4,1.5-3.9,1.3a1.45,1.45,0,0,1-.2-.7c0-2.09,3-5.19,4.6-6.39A5.4,5.4,0,0,1,334.89,409Zm-15.09,3.39a16.35,16.35,0,0,1,4.7-6.19c.5,1.6.6,4.3-.8,6a3.1,3.1,0,0,1-3.6,1C319.8,412.89,319.6,412.59,319.8,412.39Zm7.39,1.7c0-.1-.1-.1-.2-.1s-.1-.1-.2-.1-.1-.1-.2-.1-.1-.1-.2-.1-.1-.1-.2-.1h0a2.07,2.07,0,0,1,1-.6A2,2,0,0,1,327.19,414.09Zm-2.29,1.7c.1,0,.1.1.2.1s.1.1.2.1.1.1.2.1.1.1.2.1a.35.35,0,0,0,.2.1v.1a2.66,2.66,0,0,1-1,.6A2.4,2.4,0,0,1,324.9,415.79Zm7.49,1.8a16.87,16.87,0,0,1-2.2,3.8,12.71,12.71,0,0,1-2.4,2.29c-.5-1.59-.6-4.29.7-6a3.1,3.1,0,0,1,3.6-1A.86.86,0,0,1,332.39,417.59Zm-4.9-7.39c-.6-1.9.4-6.1,1.1-6.4a4.51,4.51,0,0,1,3-.7,1.75,1.75,0,0,1,.5.1l.3.3C332.79,403.8,329.69,409.4,327.49,410.2Zm-2.89,9.49c.6,1.9-.4,6.09-1.1,6.49a4.51,4.51,0,0,1-3,.7,1.75,1.75,0,0,1-.5-.1l-.3-.3C319.4,426.08,322.5,420.49,324.6,419.69Z"></path><path class="cls-1" d="M332.19,401.5c-5.1-.5-11.69,5.4-14.69,13s-1.2,14.19,3.9,14.69,11.69-5.4,14.69-13S337.38,402,332.19,401.5Zm3.5,5.3a5.34,5.34,0,0,1,.7,3.1,11.5,11.5,0,0,1-.7,3.89c-.4,1-5.6,2.5-5.6-.3S335.29,406.2,335.69,406.8Zm-7.1-3a4.51,4.51,0,0,1,3-.7,2.94,2.94,0,0,1,2.3,1.2c.4.5-3.3,7.1-5.4,7C326.39,411,327.79,404.2,328.59,403.8Zm-.1,11.79c-.5,1.4-1.7,2.5-2.69,2.4s-1.2-1.3-.7-2.7,1.69-2.5,2.69-2.4S329.09,414.09,328.49,415.59Zm-6.49-7a10.09,10.09,0,0,1,3-2.7c.8-.5,2.19,4.6.2,7.19s-5.8.3-5.4-.7A13.3,13.3,0,0,1,322,408.6ZM318,424a5.32,5.32,0,0,1-.7-3.09,11.57,11.57,0,0,1,.7-3.9c.4-1,5.6-2.5,5.6.3S318.3,424.58,318,424Zm7,3a4.51,4.51,0,0,1-3,.7,2.94,2.94,0,0,1-2.3-1.2c-.4-.5,3.3-7.09,5.4-7C327.19,419.79,325.8,426.58,325,427Zm3.59-2.1c-.8.5-2.2-4.59-.2-7.19s5.9-.3,5.4.7a12,12,0,0,1-2.3,3.79A8.92,8.92,0,0,1,328.59,424.88Zm-2.3-8.29c-.39,0-.59-.6-.29-1.3s.79-1.2,1.29-1.2.6.6.4,1.3S326.79,416.69,326.29,416.59Z"></path><path class="cls-4" d="M319.3,434.67c7.19.6,16.29-7.49,20.48-18.18s1.7-19.78-5.49-20.38S318,403.6,313.81,414.19,312.11,434,319.3,434.67Zm-2.5-20.18c3.2-8.19,10.29-14.48,15.79-14s7.39,7.59,4.2,15.78-10.3,14.49-15.79,14S313.61,422.68,316.8,414.49Z"></path><path class="cls-4" d="M531.2,302.2l-27.37-15.79L527.21,274l10.69,12.29L535.5,297Z"></path><path class="cls-3" d="M531.2,302.2l-27.37-15.79L527.21,274l10.69,12.29L535.5,297Z"></path><path class="cls-4" d="M501.93,325.48h0a8.68,8.68,0,0,0,3.3,1c7.59.7,17.18-7.89,21.58-19.18,3.69-9.39,2.4-17.68-2.6-20.58h0l-10.39-6h0a8,8,0,0,0-3.3-1c-7.59-.7-17.18,7.89-21.58,19.18-3.69,9.39-2.39,17.68,2.5,20.48h0Z"></path><g class="cls-37"><path class="cls-3" d="M501.93,325.48h0a8.68,8.68,0,0,0,3.3,1c7.59.7,17.18-7.89,21.58-19.18,3.69-9.39,2.4-17.68-2.6-20.58h0l-10.39-6h0a8,8,0,0,0-3.3-1c-7.59-.7-17.18,7.89-21.58,19.18-3.69,9.39-2.39,17.68,2.5,20.48h0Z"></path></g><path class="cls-4" d="M526.81,307.29c4.39-11.29,1.8-20.88-5.8-21.58s-17.18,7.89-21.58,19.18-1.79,20.88,5.8,21.58S522.51,318.58,526.81,307.29Z"></path><path class="cls-4" d="M527.61,308.09c4.09-10.59,1.7-19.78-5.5-20.38s-16.28,7.49-20.48,18.08-1.7,19.79,5.5,20.38S523.41,318.78,527.61,308.09Z"></path><g class="cls-37"><path class="cls-38" d="M520.41,292c-5.49-.5-12.58,5.79-15.78,14s-1.3,15.29,4.19,15.79,12.59-5.8,15.79-14S526,292.51,520.41,292Z"></path></g><g class="cls-37"><path class="cls-38" d="M517.32,295.5c-3.9-.3-9,4.1-11.29,10s-.9,10.89,3,11.19,9-4.09,11.29-10S521.21,295.8,517.32,295.5Z"></path></g><path class="cls-1" d="M506.73,319.88a5.38,5.38,0,0,0,2.59.9c5.2.5,11.69-5.4,14.69-13,2.5-6.29,1.7-11.89-1.6-13.89-.1,0-.1-.1-.2-.1s-.1-.1-.2-.1-.1-.1-.2-.1-.1-.1-.2-.1-.1-.09-.2-.09-.1-.1-.2-.1-.1-.1-.2-.1a5.38,5.38,0,0,0-2.59-.9c-5.2-.5-11.69,5.39-14.69,13-2.4,6.3-1.7,11.89,1.6,13.89.1,0,.1.1.2.1s.1.1.2.1.1.1.2.1.1.1.2.1.1.1.2.1.1.1.2.1S506.63,319.88,506.73,319.88Zm-1.7-7.39a11.57,11.57,0,0,1,.7-3.9c.2-.6,2.4-1.5,3.89-1.3a1.45,1.45,0,0,1,.2.7c0,2.1-3,5.2-4.59,6.4A5.4,5.4,0,0,1,505,312.49Zm17.68-11.89a11.5,11.5,0,0,1-.7,3.89c-.2.7-2.4,1.5-3.89,1.3a1.45,1.45,0,0,1-.2-.7c0-2.09,3-5.19,4.59-6.39A5.31,5.31,0,0,1,522.71,300.6Zm-15.08,3.3a12,12,0,0,1,2.29-3.8,14.94,14.94,0,0,1,2.4-2.4c.5,1.6.6,4.3-.8,6a3.09,3.09,0,0,1-3.59,1C507.63,304.49,507.43,304.2,507.63,303.9Zm7.39,1.79c0-.1-.1-.1-.2-.1s-.1-.1-.2-.1-.1-.1-.2-.1a.35.35,0,0,0-.2-.1c-.1-.1-.1-.1-.2-.1h0a2.07,2.07,0,0,1,1-.6A2,2,0,0,1,515,305.69Zm-2.3,1.7c.1,0,.1.1.2.1s.1.1.2.1.1.1.2.1.1.1.2.1.1.1.2.1v.1a2.66,2.66,0,0,1-1,.6A2.44,2.44,0,0,1,512.72,307.39Zm7.49,1.7a17.12,17.12,0,0,1-2.19,3.8,12.36,12.36,0,0,1-2.4,2.29c-.5-1.59-.6-4.29.7-6a3.09,3.09,0,0,1,3.59-1Q520.36,308.79,520.21,309.09Zm-4.89-7.29c-.6-1.9.4-6.1,1.1-6.4a4.49,4.49,0,0,1,3-.7,1.75,1.75,0,0,1,.5.1l.3.3C520.61,295.4,517.52,300.9,515.32,301.8Zm-2.9,9.49c.6,1.9-.4,6.09-1.1,6.49a4.49,4.49,0,0,1-3,.7,1.75,1.75,0,0,1-.5-.1l-.3-.3C507.23,317.58,510.32,312.09,512.42,311.29Z"></path><path class="cls-2" d="M506.73,319.88a5.38,5.38,0,0,0,2.59.9c5.2.5,11.69-5.4,14.69-13,2.5-6.29,1.7-11.89-1.6-13.89-.1,0-.1-.1-.2-.1s-.1-.1-.2-.1-.1-.1-.2-.1-.1-.1-.2-.1-.1-.09-.2-.09-.1-.1-.2-.1-.1-.1-.2-.1a5.38,5.38,0,0,0-2.59-.9c-5.2-.5-11.69,5.39-14.69,13-2.4,6.3-1.7,11.89,1.6,13.89.1,0,.1.1.2.1s.1.1.2.1.1.1.2.1.1.1.2.1.1.1.2.1.1.1.2.1S506.63,319.88,506.73,319.88Zm-1.7-7.39a11.57,11.57,0,0,1,.7-3.9c.2-.6,2.4-1.5,3.89-1.3a1.45,1.45,0,0,1,.2.7c0,2.1-3,5.2-4.59,6.4A5.4,5.4,0,0,1,505,312.49Zm17.68-11.89a11.5,11.5,0,0,1-.7,3.89c-.2.7-2.4,1.5-3.89,1.3a1.45,1.45,0,0,1-.2-.7c0-2.09,3-5.19,4.59-6.39A5.31,5.31,0,0,1,522.71,300.6Zm-15.08,3.3a12,12,0,0,1,2.29-3.8,14.94,14.94,0,0,1,2.4-2.4c.5,1.6.6,4.3-.8,6a3.09,3.09,0,0,1-3.59,1C507.63,304.49,507.43,304.2,507.63,303.9Zm7.39,1.79c0-.1-.1-.1-.2-.1s-.1-.1-.2-.1-.1-.1-.2-.1a.35.35,0,0,0-.2-.1c-.1-.1-.1-.1-.2-.1h0a2.07,2.07,0,0,1,1-.6A2,2,0,0,1,515,305.69Zm-2.3,1.7c.1,0,.1.1.2.1s.1.1.2.1.1.1.2.1.1.1.2.1.1.1.2.1v.1a2.66,2.66,0,0,1-1,.6A2.44,2.44,0,0,1,512.72,307.39Zm7.49,1.7a17.12,17.12,0,0,1-2.19,3.8,12.36,12.36,0,0,1-2.4,2.29c-.5-1.59-.6-4.29.7-6a3.09,3.09,0,0,1,3.59-1Q520.36,308.79,520.21,309.09Zm-4.89-7.29c-.6-1.9.4-6.1,1.1-6.4a4.49,4.49,0,0,1,3-.7,1.75,1.75,0,0,1,.5.1l.3.3C520.61,295.4,517.52,300.9,515.32,301.8Zm-2.9,9.49c.6,1.9-.4,6.09-1.1,6.49a4.49,4.49,0,0,1-3,.7,1.75,1.75,0,0,1-.5-.1l-.3-.3C507.23,317.58,510.32,312.09,512.42,311.29Z"></path><path class="cls-1" d="M520,293.11c-5.09-.5-11.68,5.39-14.68,13s-1.2,14.19,3.89,14.69,11.69-5.4,14.69-13S525.11,293.5,520,293.11Zm3.5,5.19a5.34,5.34,0,0,1,.7,3.1,11.5,11.5,0,0,1-.7,3.89c-.4,1-5.59,2.5-5.59-.3S523.11,297.7,523.51,298.3Zm-7.09-3a4.49,4.49,0,0,1,3-.7,2.94,2.94,0,0,1,2.3,1.2c.4.5-3.29,7.1-5.39,7S515.62,295.7,516.42,295.3Zm-.1,11.79c-.5,1.4-1.7,2.5-2.7,2.4s-1.2-1.3-.7-2.7,1.7-2.5,2.7-2.4S516.92,305.69,516.32,307.09Zm-6.5-7a10.09,10.09,0,0,1,3-2.7c.8-.5,2.2,4.6.2,7.19s-5.79.3-5.39-.69A13.13,13.13,0,0,1,509.82,300.1Zm-4,15.48a5.31,5.31,0,0,1-.7-3.09,11.57,11.57,0,0,1,.7-3.9c.4-1,5.59-2.5,5.59.3S506.13,316.18,505.83,315.58Zm7,3a4.51,4.51,0,0,1-3,.7,2.92,2.92,0,0,1-2.29-1.2c-.4-.5,3.29-7.19,5.39-7S513.62,318.18,512.82,318.58Zm3.6-2.1c-.8.5-2.2-4.59-.2-7.19s5.89-.3,5.39.7a12.09,12.09,0,0,1-2.3,3.8A8.85,8.85,0,0,1,516.42,316.48Zm-2.3-8.29c-.4,0-.6-.6-.3-1.3s.8-1.2,1.3-1.2.6.6.4,1.3A1.81,1.81,0,0,1,514.12,308.19Z"></path><path class="cls-4" d="M507.13,326.27c7.19.6,16.28-7.49,20.48-18.18s1.7-19.78-5.5-20.38-16.28,7.49-20.48,18.08S499.93,325.58,507.13,326.27Zm-2.5-20.18c3.2-8.19,10.29-14.48,15.78-14s7.4,7.59,4.2,15.78-10.29,14.49-15.79,14S501.43,314.29,504.63,306.09Z"></path><path class="cls-1" d="M163.55,426.08a15.25,15.25,0,0,1-.9-2.5c-1.8-6.09-1.1-12.38-1.1-19.68v-.3a362.26,362.26,0,0,1,4.29-48.85c6.3-39.17,17.49-52.95,28.88-59.55,18.38-10.59,315.2-182,322.7-186.32a2,2,0,0,1,2-.1l.4.2c14.29,3.19,83.43,39.66,83.93,51.15,3.29,9.89,3.89,33.67,3.89,44.46v47c0,2.4-33.07,25.48-41.26,30.18-1.6.9-15,8.59-35.27,20.38a32.62,32.62,0,0,0,.7-6.1c0-11.79-8.29-16.58-18.48-10.69s-18.48,20.28-18.48,32.07a20.63,20.63,0,0,0,.7,5.3c-45,26-103.51,59.74-152.16,87.92a26,26,0,0,0,.7-6.1c0-11.79-8.29-16.58-18.48-10.69S307.11,414.19,307.11,426a20.63,20.63,0,0,0,.7,5.3c-33.27,19.28-56.55,32.67-58.14,33.57-8.7,5-28.68-.1-47.56-8.9-4.2-1.79-8-3.69-11.09-5.39-.7-.4-1.3-.8-2-1.2-2.79-1.7-5.29-3.2-7.39-4.6-.1-.1-.2-.1-.3-.2s-.3-.2-.5-.3l-.1-.1C170.74,437.67,165.94,431.88,163.55,426.08Z"></path><path class="cls-2" d="M247.67,401.9c6.29-39.16,17.48-52.95,28.87-59.54,18.38-10.59,315.21-182,322.7-186.33s8.49,34,8.49,48.56v47c0,2.4-33.07,25.48-41.26,30.18-1.6.9-15,8.59-35.27,20.38a32.62,32.62,0,0,0,.7-6.1c0-11.79-8.29-16.58-18.48-10.69s-18.48,20.28-18.48,32.07a20.63,20.63,0,0,0,.7,5.3c-45,26-103.51,59.74-152.16,87.92a32.62,32.62,0,0,0,.7-6.1c0-11.79-8.29-16.58-18.48-10.69S307.21,414.19,307.21,426a20.63,20.63,0,0,0,.7,5.3c-33.27,19.28-56.55,32.67-58.14,33.57C243.87,468.14,240.37,447.46,247.67,401.9Z"></path><g class="cls-6"><path class="cls-39" d="M256.46,383.82l23.78-13.69v75.13l-27.88,16.09a35,35,0,0,1-2.89-12.59c-.6-7.89-.4-22.78,3.69-48.75Q254.66,391.16,256.46,383.82Zm-1.2-1.2a181.46,181.46,0,0,0-3.6,17.89c-3.89,24.67-4.39,40.26-3.79,49.35.5,8.69,3.39,14,3.49,14s30.48-17.59,30.48-17.59V367.34Z"></path></g><path class="cls-3" d="M251.66,400.51c6.1-38.17,16.49-48.66,24.88-53.45L590.45,165.82c2.2,1.8,4.49,15.89,4.89,38-35.36,20.38-95.21,55-148.66,85.82v-9.89L413.51,298.9v9.89c-40.76,23.58-72.53,41.86-77.72,44.86-15.49,9-31.47,19.38-48.06,40.56s-27.07,45.36-29.17,48.86c-1.8,3.19-9.29,7.59-10.69,6.79C247.17,440.87,247.67,425.18,251.66,400.51Z"></path><path class="cls-40" d="M528.61,206.19,588,171.92c1.1,3.4,2.7,12.59,3.2,29.47l-62.54,36.17Zm-3.3,1.89-62,35.87v31.37l62-35.86ZM332.59,350.75c1.1-.6,2.1-1.2,3.1-1.8l58.94-34.06V283.51l-62,35.87Zm76.83-44.36V296.5l41.36-23.88v9.9l9.29-5.4V245.85l-62,35.87V313ZM251.76,444a2.27,2.27,0,0,0,.6-.39,19.48,19.48,0,0,0,3.4-2.5l1.5-3c4.2-8.59,14.09-28.57,28.27-46.76a155.83,155.83,0,0,1,43.76-38.76V321.18l-52.85,30.47c-4.39,2.5-14.69,8.49-20.88,47.36C252.06,421.69,251.46,435.67,251.76,444Z"></path><path class="cls-4" d="M419.71,353.35l-1.3.8v-7.79l1.3-.7Z"></path><path class="cls-4" d="M277.24,435.67l-1.3.7v-7.79l1.3-.7Z"></path><path class="cls-3" d="M251.66,400.51c.2-1.5.5-3,.8-4.5.1-.4.1-.7.2-1.1.2-1.3.5-2.6.7-3.8a.37.37,0,0,1,.1-.3l.9-4.19v-.2l.9-3.9h0l26.58-15.38V402c-.6.8-1.1,1.6-1.6,2.4V370l-23.78,13.69c-1.2,4.9-2.3,10.29-3.2,16.09-4.19,26.07-4.29,40.86-3.69,48.75,0,.3.1.6.1.9a2.79,2.79,0,0,1-1.7.2C247.17,440.87,247.67,425.18,251.66,400.51Z"></path><g class="cls-37"><path class="cls-39" d="M251.66,400.51c.2-1.5.5-3,.8-4.5.1-.4.1-.7.2-1.1.2-1.3.5-2.6.7-3.8a.37.37,0,0,1,.1-.3l.9-4.19v-.2l.9-3.9h0l26.58-15.38V402c-.6.8-1.1,1.6-1.6,2.4V370l-23.78,13.69c-1.2,4.9-2.3,10.29-3.2,16.09-4.19,26.07-4.29,40.86-3.69,48.75,0,.3.1.6.1.9a2.79,2.79,0,0,1-1.7.2C247.17,440.87,247.67,425.18,251.66,400.51Z"></path></g><path class="cls-4" d="M372.25,380.82a2.35,2.35,0,0,1,1.1-1.89l3.7-2.2c.6-.4,1.1-.1,1.1.7a2.33,2.33,0,0,1-1.1,1.89l-3.7,2.2C372.75,381.82,372.25,381.52,372.25,380.82Z"></path><path class="cls-4" d="M467.36,325.87a2.36,2.36,0,0,1,1.1-1.89l3.8-2.2c.6-.4,1.1-.1,1.1.6a2.37,2.37,0,0,1-1.1,1.9l-3.8,2.19C467.86,326.87,467.36,326.57,467.36,325.87Z"></path><path class="cls-4" d="M555.88,274.82a2.37,2.37,0,0,1,1.1-1.9l3.7-2.19c.6-.4,1.1-.1,1.1.7a2.36,2.36,0,0,1-1.1,1.89l-3.7,2.2C556.38,275.82,555.88,275.52,555.88,274.82Z"></path><path class="cls-41" d="M206.61,345.26c21.58,12.49,43.06,20.28,47.95,17.38l-.2.4c-4.49,9.89-7.89,22.48-10.49,38.26-1.6,10.19-2.8,19.59-3.5,27.78v.3c-4.89,2.8-26.07-4.9-47.45-17.19-18.28-10.59-30.77-21.08-30.77-25.67a318,318,0,0,1,3.69-31.77c2.5-15.39,5.7-26.78,9.4-35.47h0C175.34,323.78,187.92,334.47,206.61,345.26Z"></path><path class="cls-3" d="M206.61,345.26c21.58,12.49,43.06,20.28,47.95,17.38l-.2.4c-4.49,9.89-7.89,22.48-10.49,38.26-1.6,10.19-2.8,19.59-3.5,27.78v.3c-4.89,2.8-26.07-4.9-47.45-17.19-18.28-10.59-30.77-21.08-30.77-25.67a318,318,0,0,1,3.69-31.77c2.5-15.39,5.7-26.78,9.4-35.47h0C175.34,323.78,187.92,334.47,206.61,345.26Z"></path><path class="cls-4" d="M165.94,376.43c.7-6.6,1.6-13.69,2.8-21.28a179.87,179.87,0,0,1,6.6-28.08c5.49,6.7,18.08,15.39,29.37,21.88,17.88,10.29,36,17.59,44.86,18.19-3.5,9.09-6.3,20.18-8.5,33.66-.89,5.4-1.59,10.6-2.19,15.49h-.3c-7.7,0-26-7.39-43.56-17.48C177.73,388.82,168.24,380.32,165.94,376.43Z"></path><g class="cls-42"><path class="cls-1" d="M171.74,366.24c2.6-16.19,5.89-26.58,9.19-33.57a168.16,168.16,0,0,0,23.78,16.38c1.1.6,2.2,1.2,3.3,1.9-2.1,2.4-4.2,4.9-6.3,7.59a232.29,232.29,0,0,0-20.48,31.57,99.49,99.49,0,0,1-11.59-9.29C170.24,376.43,170.94,371.53,171.74,366.24Z"></path></g><path class="cls-1" d="M226.59,447.66c5.29-.1,9.69-1.4,15-.5l.5,8.49a48.85,48.85,0,0,1-15.58-1.2C223.59,453.76,224,447.66,226.59,447.66Z"></path><path class="cls-1" d="M161.45,407.6a72.28,72.28,0,0,0,3.1,6.79h0c1.09,2.2,1.29,8.39-.6,5.8a26.8,26.8,0,0,1-2.5-4.7V407.6Z"></path><path class="cls-4" d="M164.65,414.29h0a23.88,23.88,0,0,0,4,5.5,70.92,70.92,0,0,0,10,7.89.1.1,0,0,1,.1.1c.2.1.3.2.5.3s.2.1.3.2c2.1,1.4,4.5,2.9,7.39,4.6.7.39,1.3.79,2,1.19a89.46,89.46,0,0,0,11.09,5.4,113.88,113.88,0,0,0,17.89,7,32.41,32.41,0,0,0,8.79,1.1c-2.6,0-3.1,6.1-.1,6.8a123.24,123.24,0,0,1-26.58-9.1c-4.19-1.79-8-3.69-11.09-5.39-.7-.4-1.3-.8-2-1.2-2.79-1.7-5.29-3.2-7.39-4.6-.1-.1-.2-.1-.3-.2s-.3-.2-.5-.3a.1.1,0,0,1-.1-.1c-7.29-4.79-11.79-9.19-14.68-13.38C165.84,422.68,165.74,416.49,164.65,414.29Z"></path><path class="cls-2" d="M164,401.4a33.14,33.14,0,0,0,4.59,6.5,70.2,70.2,0,0,0,10,7.89.1.1,0,0,1,.1.1c.2.1.3.2.5.3s.2.1.3.2c2.1,1.4,4.5,2.9,7.39,4.6.7.4,1.3.8,2,1.2a108.5,108.5,0,0,0,11.09,5.39,113.88,113.88,0,0,0,17.89,7,32.41,32.41,0,0,0,8.79,1.1l-.1,6.8a123.24,123.24,0,0,1-26.58-9.1c-4.19-1.79-8-3.69-11.09-5.39-.7-.4-1.3-.8-2-1.2-2.79-1.7-5.29-3.2-7.39-4.6-.1-.09-.2-.09-.3-.19s-.3-.2-.5-.3a.1.1,0,0,1-.1-.1c-7.29-4.8-11.79-9.2-14.68-13.49v-6.7Z"></path><path class="cls-4" d="M197,454.45l-15.79-9.09v-4.29L197,450.16Z"></path><path class="cls-43" d="M441.59,184.21l56.24-32.47h3.1l24.48,14.08-56.25,32.47h-3Z"></path><path class="cls-2" d="M444.68,181.11l56.25-32.47,24.48,14.09v3.09l-56.25,32.47-24.48-14.08Z"></path><g class="cls-44"><path class="cls-39" d="M469.16,195.3l56.25-32.47v3.09l-56.25,32.47-24.48-14.08v-3.2Z"></path></g><path class="cls-3" d="M469.16,199.79a2.35,2.35,0,0,1-.8-.2l-24.47-14.08a1.56,1.56,0,0,1-.8-1.3v-3.1a1.56,1.56,0,0,1,.8-1.3l56.24-32.47a1.36,1.36,0,0,1,1.5,0l24.48,14.09a1.56,1.56,0,0,1,.8,1.3v3a1.56,1.56,0,0,1-.8,1.3l-56.25,32.47C469.66,199.79,469.46,199.79,469.16,199.79Zm-23-16.48,23,13.29L523.91,165v-1.29l-23-13.29L446.18,182Z"></path><path class="cls-43" d="M263.55,287.21l56.25-32.47h3l24.48,14.09L291,301.3h-3Z"></path><path class="cls-2" d="M266.55,284.21l56.25-32.47,24.48,14.19v3L291,301.4l-24.48-14.09Z"></path><g class="cls-44"><path class="cls-39" d="M291,298.3l56.25-32.47v3L291,301.3l-24.48-14.09v-3.1Z"></path></g><path class="cls-3" d="M291,302.9a2.35,2.35,0,0,1-.8-.2l-24.48-14.09a1.56,1.56,0,0,1-.8-1.3v-3.1a1.56,1.56,0,0,1,.8-1.3L322,250.45a1.36,1.36,0,0,1,1.5,0L348,264.63a1.56,1.56,0,0,1,.8,1.3v3a1.56,1.56,0,0,1-.8,1.3L291.73,302.7A1.45,1.45,0,0,1,291,302.9Zm-23-16.49,23,13.29,54.75-31.57v-1.3l-23-13.29-54.75,31.57v1.3Z"></path><path class="cls-2" d="M237.18,403.9c0-10.79,6.09-19.68,10.89-22.88s1.8,6.8,0,7.1-8.39,9.29-8.39,17.48S237.18,403.9,237.18,403.9Z"></path><path class="cls-4" d="M242.57,423.78h0a1.82,1.82,0,0,1-1.4.3,5.54,5.54,0,0,1-2.89-1.2h0l-.1-.1h0c-3.8-2.59-4.1-4.59-4.1-12a43.46,43.46,0,0,1,.3-6.3h0A11.68,11.68,0,0,1,236,400l.1-.1h0l.1-.1h0c.7-.4,1.9.3,3.9,1.69h.1c4.59,3.2,5,4,5,14.49.1,4.1-1.1,6.79-2.6,7.79Z"></path><g class="cls-45"><path class="cls-39" d="M242.47,416.69c0-8.69-.3-9.29-4.09-11.89h0c-2.4-1.6-3.4-2.2-3.8-.2a11.25,11.25,0,0,1,1.6-4.29l.1-.1h0l.1-.1h0c.7-.4,1.9.3,3.9,1.69h.09c4.6,3.2,5,4,5,14.49,0,4-1.2,6.69-2.7,7.59h-.1a3.08,3.08,0,0,1-1.3.3,5.54,5.54,0,0,1-2.89-1.2h0C240.28,424.08,242.47,421.59,242.47,416.69Z"></path></g><path class="cls-4" d="M155.75,373.93c-1,.6-3.59-.4-5.59-2.2h0a7.13,7.13,0,0,1-1.5-1.8h0a21.73,21.73,0,0,1-2.6-10.09,46.44,46.44,0,0,1,.2-6.09h0c.2-2.2,1-4.3,1.8-4.8h0c.7-.4,1.9.3,3.9,1.7h.1c4.59,3.2,5,4,5,14.49.1,5.39,0,8.09-1.3,8.79Z"></path><g class="cls-45"><path class="cls-39" d="M154.36,365.44c0-8.69-.3-9.29-4.1-12h0c-2.6-1.8-3.5-2.2-3.9.3v-.1h0c.2-2.2,1-4.3,1.8-4.8h0c.7-.4,1.9.3,3.9,1.7h.1c4.59,3.2,5,4,5,14.49,0,5.49-.2,8.29-1.3,8.89h0c-1,.6-3.59-.4-5.49-2.2C154.06,374.33,154.36,372.83,154.36,365.44Z"></path></g><path class="cls-3" d="M518.72,108.58a2.86,2.86,0,0,1,.89.2l.4.2c14.29,3.19,83.43,39.66,83.93,51.15v.1a30.25,30.25,0,0,1,1.09,4.2v.1c.2.79.3,1.59.5,2.39v.1c.1.9.3,1.8.4,2.7v.1l.3,2.7v.2c.1.9.2,1.9.3,2.89v.2a24.52,24.52,0,0,1,.2,2.7v.4c.1,1,.1,1.9.2,2.9v.4a20.9,20.9,0,0,1,.1,2.5v.7c0,.89.1,1.79.1,2.79v.5c0,.8.1,1.5.1,2.2v.9c0,.8.1,1.7.1,2.5v.5a12.75,12.75,0,0,0,.1,2v54.74c0,.9-5.39,5.3-12.29,10.39h0c-.3.2-.5.4-.8.6-10.19,7.5-23.37,16.39-28.07,19.19-1.4.8-11.19,6.49-26.57,15.38l-.3.2h0c-2.6,1.5-5.4,3.1-8.3,4.8l-1.79-1a32,32,0,0,1-1.8,6.89c-3.9,10.09-12.39,17.88-19.28,18.18a16.35,16.35,0,0,1-2.2.2h-.8l-1.7-.3c-.1,0-.1-.1-.2-.1-.5-.2-1-.39-1.4-.59h0l-6.69-3.9c.1.4.1.8.2,1.2-.6.3-1.1.7-1.7,1-2.2,1.3-4.4,2.49-6.6,3.79l-.49.3c-18.39,10.59-38.67,22.38-59.45,34.37l-13.89,8c-5.39,3.1-10.89,6.3-16.28,9.39l-.8.5c-14.49,8.4-28.87,16.69-42.66,24.68l-.7.4h0c-2.7,1.5-5.3,3-7.89,4.5-.6.3-1.1.7-1.7,1l-1.8-1a32.1,32.1,0,0,1-1.8,6.89c-3.89,10.09-12.39,17.88-19.28,18.18a16.35,16.35,0,0,1-2.2.2h-.8a10.1,10.1,0,0,1-1.7-.3c-.1,0-.1,0-.2-.1-.49-.2-1-.4-1.39-.6h0l-6.7-3.89c.1.4.1.8.2,1.2-.6.3-1.1.7-1.7,1-8.89,5.09-17,9.79-24.17,14,0,0-30.38,17.49-30.48,17.59-1,.5-1.59.9-1.79,1a18.67,18.67,0,0,1-9.29,2c-10.2,0-24.48-4.49-38.27-10.79-1.8-.8-3.4-1.5-5-2.29v.79l-15.79-9.09v-.8c-.1-.1-.3-.2-.4-.3l-.1-.1c-9.89-6.59-14.79-12.28-17.18-18.08a15.25,15.25,0,0,1-.9-2.5,34.93,34.93,0,0,1-1.2-7.89c0-.1-.1-.1-.1-.2V407.6a.31.31,0,0,0,.1.2v-4.1c.1-5,.3-10.59.7-16.48a4.33,4.33,0,0,0-.1-.5A318,318,0,0,1,165.64,355c.3-2.2.7-4.3,1.1-6.4.1-.7.3-1.39.4-2.09a25.58,25.58,0,0,0,.5-2.7c-6.39,1.1-12.59,3.89-14.78,7.69,3.49,2.6,3.89,4.1,3.89,13.69,0,5.49-.2,8.29-1.3,8.89h0a1.88,1.88,0,0,1-.8.2h-.29a7,7,0,0,1-1.2-.3c-.1,0-.1,0-.2-.1a10.84,10.84,0,0,1-3.1-2h0a7.13,7.13,0,0,1-1.5-1.8h0a21.73,21.73,0,0,1-2.6-10.09,46.44,46.44,0,0,1,.2-6.09h0c.2-2.2,1-4.3,1.8-4.8h0a.75.75,0,0,1,.5-.1,5.27,5.27,0,0,1,2.3,1c1.4-4.09,6.59-11.39,19-14.08.1-.3.1-.5.2-.8.4-1.6.9-3.2,1.3-4.7.2-.5.3-1,.5-1.6a24.69,24.69,0,0,1,1-2.9,13.77,13.77,0,0,1,.7-1.79c.3-.8.6-1.6.9-2.3s.5-1.1.7-1.7c.1-.2.1-.4.2-.5h0c5.69-13.39,12.58-20.08,19.48-24.08,18.38-10.59,315.2-182,322.7-186.32A2.64,2.64,0,0,1,518.72,108.58Zm0-3.1a5.94,5.94,0,0,0-2.6.7c-3.8,2.2-84.22,48.65-161.95,93.51-75.93,43.86-151.76,87.62-160.75,92.82s-15.49,13.08-20.68,25.17a.37.37,0,0,0-.1.3c-.1.1-.1.3-.2.5l-.1.2c-.2.5-.5,1.1-.7,1.7l-.9,2.4c-.2.6-.5,1.2-.7,1.9-.3.9-.6,1.89-1,3l-.2.5c-.1.4-.2.7-.3,1.1-.4,1.2-.7,2.5-1.1,3.8-9.39,2.5-15.18,7.69-18.08,12.69-.3,0-.5-.1-.8-.1a3.92,3.92,0,0,0-1.8.4c-.1,0-.1.1-.2.1h-.1c-.1,0-.1.1-.2.1h-.1c-2,1.29-3,4.59-3.19,7a49.12,49.12,0,0,0-.3,6.39,24.5,24.5,0,0,0,3,11.49.1.1,0,0,0,.1.1,9.84,9.84,0,0,0,2.1,2.6c.1.1.1.1.2.1a13.27,13.27,0,0,0,3.9,2.4h.1a.76.76,0,0,0,.4.1,8.47,8.47,0,0,0,1.7.4h.59a4.38,4.38,0,0,0,2.3-.6h0c2.8-1.6,2.8-5.6,2.8-11.49,0-7.49-.1-11.09-2.7-14a19.9,19.9,0,0,1,6.7-3.4v.2c-.5,2.5-.8,4.5-1.1,6.4-1.9,11.89-3.2,22.68-3.8,32.07v.2a1.48,1.48,0,0,0,.1.7c-.4,5.69-.6,11.09-.7,16.18v3.5a1.48,1.48,0,0,0-.1.7v7.89a2.2,2.2,0,0,0,.1.8,36.26,36.26,0,0,0,1.2,8,11.63,11.63,0,0,0,1.1,3.1c2.8,6.69,8.29,12.79,17.58,19a2.91,2.91,0,0,0,1.4,1.7l15.79,9.09a2.82,2.82,0,0,0,1.5.4,1.44,1.44,0,0,0,.69-.1c1.1.5,2.1,1,3.1,1.4,15.29,7.09,29.67,11.09,39.47,11.09,4.49,0,8.09-.8,10.88-2.4l1.8-1c.4-.2,30.18-17.38,30.47-17.58l13.79-7.89,10.49-6,.4-.3c.2-.1.4-.3.6-.4l4,2.3a.76.76,0,0,0,.5.2,4.71,4.71,0,0,0,1.5.6h0c.1,0,.2.1.3.1a9.1,9.1,0,0,0,2.29.4h1.1a24.62,24.62,0,0,0,2.6-.2c8.19-.5,17.48-9,21.78-20.08.5-1.3.9-2.7,1.3-4l1-.3c.6-.3,1.2-.7,1.7-1l4.49-2.59,3.1-1.8c.1,0,.1-.1.2-.1l.7-.4c13.79-7.89,28.17-16.29,42.66-24.68l.8-.5,8.89-5.09,7.49-4.3,13.89-8,20.88-12.09,38.56-22.28.5-.3c2.2-1.3,4.3-2.5,6.5-3.7.1,0,.1-.1.2-.1l.8-.39c.1-.1.2-.1.3-.2l4,2.29a.76.76,0,0,0,.5.2,4.71,4.71,0,0,0,1.5.6l.2.1h.1a9.33,9.33,0,0,0,2.2.4c.4,0,.7.1,1.1.1a24.24,24.24,0,0,0,2.59-.2c8.2-.5,17.49-9,21.78-20.08.5-1.3.9-2.7,1.3-4a3,3,0,0,0,1-.4c2.9-1.69,5.6-3.19,8.19-4.69.1,0,.1-.1.2-.1l.3-.2,15.69-9.09c6.19-3.6,10.09-5.8,10.89-6.3,5-2.89,18.28-11.89,28.37-19.38l.4-.3c.2-.1.3-.2.5-.3l.1-.1c13.49-9.89,13.39-11.09,13.39-12.79v-57a12.75,12.75,0,0,0-.1-1.9v-1.5l-.1-1.5v-1.2c0-1-.1-1.9-.1-2.79v-1c0-.7-.1-1.4-.1-2.1v-.4c-.1-1-.1-2-.2-3v-.4c-.1-1-.2-1.9-.2-2.8v-.19l-.3-3v-.2c-.1-1-.2-1.9-.3-2.8v-.2c-.1-1-.3-1.9-.4-2.7v-.2c-.1-.8-.3-1.6-.5-2.49h0v-.1a31.63,31.63,0,0,0-1.1-4.2c-.2-2.8-2.4-10.29-38.26-30.77-19-10.89-39.66-20.68-47.56-22.68a.1.1,0,0,1-.1-.1A10.58,10.58,0,0,0,518.72,105.48Z"></path><path class="cls-46" d="M281.84,411l71-41.07V405.1l.8-.5V369.43l42.56-24.57V380l.8-.5V344.36L413.31,335v-.9l-131.57,76v.9Z"></path><path class="cls-46" d="M413.51,298.8l33.17-19.18V351l-33.17,19.18Zm31.57-16.28-30,17.28v67.54l30-17.29Z"></path><path class="cls-46" d="M595.34,229.46v32.67c-.3.2-.5.4-.8.6V230.46L540.3,261.73V297l-.8.5V262.33l-52.26,30.18v35.16l-.79.5V293l-32.37,18.68v35.17l-.8.49V312.19l-6.5,3.79v-.9l148.56-86Z"></path><path class="cls-47" d="M382.89,155.12a18.75,18.75,0,0,0-1.41-7.56c7.1-.78,12.11,4.35,12.11,13.74,0,12.35-8.67,27.37-19.37,33.55-8.13,4.69-15.08,2.91-17.94-3.63a18.84,18.84,0,0,0,7.25-2.55C374.22,182.49,382.89,167.47,382.89,155.12Z"></path><path class="cls-47" d="M334.5,149.54c16-27.76,42-42.78,58.06-33.52l10.7,6.18c-16-9.26-42,5.76-58.06,33.52s-16,57.74,0,67l-10.67-6.15C318.46,207.33,318.47,177.31,334.5,149.54Z"></path><path class="cls-22" d="M345.2,222.76l29,16.76,29-50.28c16-27.77,16-57.79,0-67s-42,5.76-58.06,33.52S329.17,213.51,345.2,222.76Zm9.66-39.09c0-12.36,8.67-27.38,19.36-33.56s19.37-1.17,19.37,11.19-8.67,27.37-19.37,33.55S354.86,196,354.86,183.67Z"></path><path class="cls-48" d="M724.6,285l-.18-.07h0l-.18-.06h-.19l-.19,0h-.92"></path><path class="cls-49" d="M673.82,274.92a2.14,2.14,0,0,0-1.67,0l-87,50.68c-.4.23-.29.6.24.82l1.91.81a2.14,2.14,0,0,0,1.67,0l87-50.68c.4-.23.29-.6-.24-.82l-1.91-.81Z"></path><path class="cls-49" d="M685.6,281a2.14,2.14,0,0,0-1.67,0L597,331.7c-.4.23-.29.6.24.83l1.91.8a2.1,2.1,0,0,0,1.67,0l87-50.68c.4-.23.29-.6-.24-.82L685.6,281Z"></path><path class="cls-49" d="M698.71,286.45a2.14,2.14,0,0,0-1.67,0l-87,50.68c-.39.23-.29.59.24.82l1.91.8a2.1,2.1,0,0,0,1.67,0l87-50.68c.39-.23.28-.6-.24-.82l-1.91-.81Z"></path><path class="cls-50" d="M485.69,444a99.12,99.12,0,0,1,12.24-34.89c-4.4,11.35-7.87,22.75-9.43,34.34-1.1-.85-2.35-.68-2.81.55Z"></path><path class="cls-51" d="M619.91,353.62c.73,2.94.11-6.58,0,104.74"></path><path class="cls-52" d="M507.91,397.86a3.88,3.88,0,0,0-2-3.09l-8.16-3.44c-1-.44-1.82.22-1.74,1.49l.29,4.57a3.88,3.88,0,0,0,2,3.09l8.16,3.44c1,.44,1.82-.22,1.74-1.49l-.29-4.57Z"></path><path class="cls-53" d="M496.6,391.31h0l2.18-1.27h0a1.28,1.28,0,0,1,1.15,0l8.16,3.45a3.85,3.85,0,0,1,2,3.09l.3,4.57a1.62,1.62,0,0,1-.47,1.4h0a1.2,1.2,0,0,1-.27.16l-2,1.19h0a1.58,1.58,0,0,0,.54-1.46l-1.69-6.37c-.08-1.26.4-.85-.64-1.29l-8.16-3.44a1.24,1.24,0,0,0-1.11,0Z"></path><path class="cls-52" d="M695.5,390.78c8.57-8.21,20.73-7.14,20.51,12.82L695.5,390.78Z"></path><path class="cls-52" d="M570.8,463.75c8.06-4.91,17.22-2,18.86,12.17l-20-8.46,1.16-3.71Z"></path><path class="cls-52" d="M573.64,470.13c4.24-2.54,8,.58,8.42,7s-2.7,13.61-6.94,16.15-8-.59-8.42-7,2.7-13.61,6.94-16.15Z"></path><path class="cls-48" d="M574,488.87c.5-.3.94.07,1,.82a2.2,2.2,0,0,1-.82,1.9c-.5.3-.94-.06-1-.82a2.21,2.21,0,0,1,.82-1.9ZM572.83,471c.49-.29.94.07,1,.82a2.22,2.22,0,0,1-.82,1.91c-.5.29-.94-.07-1-.82a2.23,2.23,0,0,1,.82-1.91Z"></path><path class="cls-48" d="M578.52,478.29a2.21,2.21,0,0,1,.82-1.9c.49-.3.94.07,1,.82a2.21,2.21,0,0,1-.82,1.9c-.5.3-.94-.07-1-.82Zm-11.88,7.11a2.23,2.23,0,0,1,.82-1.91c.5-.29.94.07,1,.82a2.22,2.22,0,0,1-.82,1.91c-.5.3-.94-.07-1-.82Z"></path><path class="cls-48" d="M577.39,484.53c.32-.75.89-1.09,1.28-.77a1.82,1.82,0,0,1,.12,1.93c-.32.74-.89,1.08-1.28.76a1.79,1.79,0,0,1-.12-1.92Zm-9.21-7.61c.32-.74.89-1.08,1.28-.76a1.79,1.79,0,0,1,.12,1.92c-.32.74-.89,1.09-1.28.77a1.82,1.82,0,0,1-.12-1.93Z"></path><path class="cls-48" d="M576.7,473.82a1.79,1.79,0,0,1-.12-1.92c.32-.74.89-1.09,1.28-.77a1.82,1.82,0,0,1,.12,1.93c-.32.74-.89,1.08-1.28.76Zm-7.59,17.65a1.79,1.79,0,0,1-.12-1.92c.32-.74.89-1.09,1.28-.77a1.8,1.8,0,0,1,.12,1.93c-.32.74-.89,1.08-1.28.76Z"></path><path class="cls-54" d="M574,475.08c2.42-1.45,4.58.33,4.81,4s-1.54,7.78-4,9.23-4.58-.33-4.81-4,1.54-7.78,4-9.23Z"></path><path class="cls-55" d="M573.27,464.35c6.36-3.8,12,.88,12.64,10.44s-4.06,20.42-10.42,24.22-12-.87-12.63-10.43,4-20.42,10.41-24.23Zm.37,5.78c4.24-2.54,8,.58,8.42,7s-2.7,13.61-6.94,16.15-8-.59-8.42-7,2.7-13.61,6.94-16.15Z"></path><path class="cls-52" d="M568.71,499.84h0l-8.88-3.75h0c-3.19-1.35-5.48-5.38-5.86-11.27-.61-9.56,4.06-20.41,10.42-24.22a7.36,7.36,0,0,1,6.78-.83h0l8.88,3.75h0a7.36,7.36,0,0,0-6.78.83c-6.36,3.81-11,14.66-10.41,24.23.37,5.88,2.66,9.92,5.85,11.26Z"></path><path class="cls-52" d="M700.84,396c4.24-2.54,8,.58,8.42,7s-2.7,13.61-6.94,16.15-8-.59-8.42-7,2.7-13.61,6.94-16.15Z"></path><path class="cls-48" d="M701.17,414.75c.5-.3.94.07,1,.82a2.21,2.21,0,0,1-.82,1.9c-.5.3-.94-.07-1-.82a2.21,2.21,0,0,1,.82-1.9ZM700,396.89c.5-.29,1,.07,1,.82a2.25,2.25,0,0,1-.82,1.91c-.5.29-1-.07-1-.82a2.21,2.21,0,0,1,.81-1.91Z"></path><path class="cls-48" d="M705.72,404.17a2.2,2.2,0,0,1,.81-1.9c.5-.3,1,.07,1,.82a2.23,2.23,0,0,1-.82,1.9c-.5.3-1-.07-1-.82Zm-11.88,7.11a2.23,2.23,0,0,1,.82-1.91c.5-.29.94.07,1,.82a2.23,2.23,0,0,1-.82,1.91c-.5.29-.94-.07-1-.82Z"></path><path class="cls-48" d="M704.58,410.41c.32-.75.9-1.09,1.28-.77a1.8,1.8,0,0,1,.13,1.93c-.32.74-.9,1.08-1.28.76a1.8,1.8,0,0,1-.13-1.92Zm-9.2-7.61c.32-.74.89-1.08,1.28-.76a1.81,1.81,0,0,1,.12,1.92c-.32.74-.89,1.09-1.28.77a1.8,1.8,0,0,1-.12-1.93Z"></path><path class="cls-48" d="M703.9,399.7a1.79,1.79,0,0,1-.12-1.92c.31-.74.89-1.09,1.28-.77a1.82,1.82,0,0,1,.12,1.93c-.32.74-.89,1.08-1.28.76Zm-7.59,17.65a1.79,1.79,0,0,1-.12-1.92c.32-.74.89-1.09,1.28-.77a1.82,1.82,0,0,1,.12,1.93c-.32.74-.89,1.08-1.28.76Z"></path><path class="cls-54" d="M701.16,401c2.42-1.45,4.58.33,4.81,4s-1.54,7.78-4,9.23-4.58-.33-4.81-4,1.54-7.78,4-9.23Z"></path><path class="cls-55" d="M700.47,390.23c6.36-3.8,12,.88,12.63,10.44s-4.05,20.42-10.41,24.22-12-.87-12.64-10.43,4.06-20.42,10.42-24.23Zm.37,5.78c4.24-2.54,8,.58,8.42,7s-2.7,13.61-6.94,16.15-8-.59-8.42-7,2.7-13.61,6.94-16.15Z"></path><path class="cls-52" d="M695.91,425.72h0L687,422h0c-3.19-1.35-5.48-5.38-5.86-11.27-.61-9.56,4.06-20.41,10.42-24.22a7.36,7.36,0,0,1,6.78-.83h0l8.88,3.75h0a7.36,7.36,0,0,0-6.78.83c-6.36,3.81-11,14.66-10.42,24.23.38,5.88,2.67,9.92,5.86,11.26Z"></path><path class="cls-56" d="M616.84,355.16c-20.85,12.28-30,35.19-41.65,62.29A49.47,49.47,0,0,1,566.4,431q-8.67,9.54-17.13,19.65a30.53,30.53,0,0,0-6.87,19.11c.16,8.59.6,17.2,1.5,25.83,4.75,1.58,9.67.31,14.24-1.21-2.59-31.15,28.37-45.75,31.52-18.43l97-56.73c-2.39-32.26,28.92-46.41,29.81-17.81a32.51,32.51,0,0,0,12.85-7.32c2.26-2,2.54-15,2.5-18.12-.67-56.16-1.83-73.88-4-85.41Z"></path><path class="cls-52" d="M706.33,384.46c3.51-.3,6.63,1.26,8.45,5.05h0l16.86-12.29.11-8.32-25.42,15.56Z"></path><path class="cls-49" d="M615.05,373.82c1.75,13.22.4,26.4,1,39.77a29,29,0,0,1-.3,8c-.3,1.37-.69,2.72-1,4.09l0,.08a26,26,0,0,0-.6,7.34c.6,8.3,1.74,17.64,1,25.89l0,.41-.23.36L592.54,473l-.69-.33c-.69-4.58-2.11-9.15-5.24-12.61a18.79,18.79,0,0,0-6.83-4.65l-.29-.42c-.06-11-.12-25.33-.26-36.63,0-.26,7.78-20.36,14.78-29.45,4.8-6.23,11.69-10.6,18.6-14.47.57-.32,1.15-.63,1.73-.93,0,0,.43.18.71.33Zm-.84.79c-6.37,3.43-12.62,7.31-17.56,12.58-6.31,6.73-10.13,15.65-13.87,24.15-1.31,3-2.59,5.92-3.87,8.89v.41c.1,11.38,1.42,22.68,1.5,34l.28.12a18.9,18.9,0,0,1,8.76,7.57,27.42,27.42,0,0,1,3.21,9.49l21.57-12.78c.76-8.54-.43-18.28-1.07-26.81-.3-4.35,1.47-8.59,2-12.56a29.82,29.82,0,0,0,0-5.09c-.52-13.31.78-26.59-.93-39.84,0,0,0-.16,0-.14Z"></path><path class="cls-57" d="M719.25,318.24c2-1.17,1.88,0,2.25,2.45,1.23,8.39-.32,19.86.28,28.55.11,1.69-.25,2.8-1.56,3.6-13.25,8.08-68.85,42.58-86.92,53.6-2.62,1.6-5.47.43-5.57-2.81-.28-8.67-.17-21.08-.16-27.48a7.45,7.45,0,0,1,.44-3,5,5,0,0,1,1.85-2.29c32.87-20,55.89-33.28,89.39-52.63Z"></path><path class="cls-53" d="M674.89,344.35c0,1.06-.28,35.26.22,35.76l-.78.27c-.79-10-.17-34-.36-35.48l.69-.41.23-.14Z"></path><path class="cls-56" d="M542.69,465.37c3.25-.43,7.82-1.77,13.54-5.68-.36,3.75-1.59,5.82-5.7,11a13.89,13.89,0,0,1-8,2.69,41.94,41.94,0,0,1,.2-8Z"></path><path class="cls-55" d="M476.87,445.89c9.81,17,34.06,27.95,65.61,27.46a15,15,0,0,0,8-2.69c3.54,4.94,7.8,5.09,12.76.68h0c-3.65,5.69-5.93,13.6-5.15,23-15.14,7-69.72.84-78.68-23.58-2.22-6.07-2.88-17.74-2.59-24.88Z"></path><path class="cls-56" d="M542.71,465.36c-27.48-.8-57.84-14.13-65.62-27.71a56.72,56.72,0,0,0-.21,8.25c11,19.47,33.19,28.7,65.61,27.45a60.65,60.65,0,0,1,.22-8Z"></path><path class="cls-57" d="M590.18,402l.13,26c-9.37,5.74-16.25,10.85-16.32,10.9A322.59,322.59,0,0,1,590.18,402Zm2-3.71c.44-.8.89-1.58,1.33-2.35,3.76-6.54,11.68-11.87,16.17-14.27a1,1,0,0,1,1.11,0,1.58,1.58,0,0,1,.44,1.27c-.08,3.3-.18,20.84-.07,29.26.05,3.35-1.12,5.95-4,7.7-3.46,2.12-10,4.61-15.09,7.71l.08-29.37Z"></path><path class="cls-52" d="M588.51,429.68l-.13.39L574,438.88c2-5.44,4.44-11.61,7.17-17.91l7.35,8.71Z"></path><path id="blanc_capot_vf" data-name="blanc capot vf" class="cls-48" d="M477,444.17s17.29,17.73,28.15,21.06,37.22,4.5,37.22,4.5.69-9.16,3.13-13.15,5.1-7.09,14.19-17.51,11.75-16.41,16.63-26.61,16.84-38.35,21.72-41.9,14.85-12.85,19.29-15.29S728.43,291.2,728.43,291.2,675,260.6,668.57,261.71,556,323.79,553.29,326s-10.64,9.09-14.41,14.64-21.28,33-21.28,33l-13.53,25.94-15.52,17.95s-8.2,7.54-9.09,10.2S477,444.17,477,444.17Z"></path><path class="cls-52" d="M584.33,392.51c-25.81-.76-56.57-16.87-61.3-26.35-8.9,15.6-15.55,25.8-23.52,38.51-.64,13.5,41.6,34,64.85,28.56,9.11-7.65,11.87-21.33,20-40.72Z"></path><path class="cls-53" d="M490.8,472.47a9.76,9.76,0,0,1-3.2-6.34c-.51-5.35-1.47-15.5-2-20.58a1.37,1.37,0,0,1,.69-1.32,1.39,1.39,0,0,1,1.49.07,88.27,88.27,0,0,0,33.49,14.1,3,3,0,0,1,1.94,1.37,3,3,0,0,1,.33,2.36c-1.22,4.37-3.44,12.33-4.81,17.26A5.06,5.06,0,0,1,513,483a45.89,45.89,0,0,1-22.16-10.54Z"></path><path class="cls-52" d="M694.7,391.52,579.32,461.61c3.12.4,5.94,2.25,7.88,5.8h0L687.61,406.1a34.74,34.74,0,0,1,7.09-14.58Z"></path><path class="cls-52" d="M585.58,457.8a18,18,0,0,1,3.87,4.54,22,22,0,0,1,1.4,2.84l-.8.5a18.79,18.79,0,0,0-3.44-5.64,16.77,16.77,0,0,0-1.84-1.74l.81-.5Zm31.89-19.37c.16,3.47.23,6.94.17,10.4l-.95.58c.07-3.48,0-7-.13-10.42l.91-.56Z"></path><path class="cls-52" d="M623,435.1c.12,3.44.21,6.89.25,10.33l-.9.55c0-3.44-.1-6.9-.21-10.35l.86-.53Z"></path><path class="cls-52" d="M679.83,400.55c.13,3.38.23,6.75.28,10.13l-.9.55c0-3.39-.11-6.78-.22-10.17l.84-.51Z"></path><path class="cls-52" d="M590.54,432.76a3.85,3.85,0,0,0-2-3.08l-8.16-3.45c-1-.44-1.82.23-1.74,1.49l.29,4.58a3.84,3.84,0,0,0,2,3.08l8.16,3.45c1,.44,1.82-.23,1.74-1.49l-.3-4.58Z"></path><path class="cls-53" d="M579.24,426.22h0l2.19-1.28h0a1.25,1.25,0,0,1,1.15,0l8.15,3.45a3.84,3.84,0,0,1,2,3.08l.29,4.58a1.65,1.65,0,0,1-.46,1.4h0a.89.89,0,0,1-.27.15l-2,1.2h0a1.56,1.56,0,0,0,.55-1.46l-.3-4.58a3.85,3.85,0,0,0-2-3.08l-8.16-3.45a1.27,1.27,0,0,0-1.11,0Z"></path><path class="cls-50" d="M520.91,457.12c9.65-6.87,28-13.48,40-21.45-11.06,8.57-23.9,16.13-35.8,23.42a5.7,5.7,0,0,0-4.15-2Z"></path><path class="cls-58" d="M542.13,473.67c-22.72,1.05-56.55-10.21-65.18-25-.45-.77,0,2-.17-6.64a30.5,30.5,0,0,1,6.88-19.11c5.78-6.91,12.13-13.2,17.57-20.12,2.84-3.62,5.54-6.81,7.82-11.4,14.75-29.68,29.08-56.29,50.34-68.81,0,0,87-48.7,106.53-60.09a4.52,4.52,0,0,1,4.28-.46h0c18.2,4.44,58.22,28.73,58.22,28.73"></path><path class="cls-58" d="M728.43,291.2c0-2.88-108.19,62.52-108.19,62.52-28.82,16.4-34.25,36.52-45.89,63.62-2.17,5-4.3,9.63-8,13.63q-8.67,9.54-17.13,19.65a30.53,30.53,0,0,0-6.87,19.11c.16,8.59-.87,17.9,0,26.53,4.75,1.58,11.14-.39,15.71-1.91-2.59-31.15,28.37-45.75,31.52-18.43l97-56.73c-2.39-32.26,29.36-48.63,29.81-16.48a48,48,0,0,0,12.41-8.2c2.25-2,2.29-13.77,2.27-16.91C730.81,320.57,728.43,291.2,728.43,291.2Z"></path><path class="cls-47" d="M623.5,252.46a12.84,12.84,0,0,0-1.31-5.13c4.85-.85,8.53,2.45,8.94,8.92.54,8.49-4.76,19.2-11.84,23.92-5.39,3.59-10.25,2.67-12.51-1.7a12.86,12.86,0,0,0,4.88-2.08C618.74,271.68,624,261,623.5,252.46Z"></path><path class="cls-47" d="M590,250.76c9.81-19.8,27-31.28,38.46-25.62l7.63,3.78c-11.44-5.66-28.65,5.82-38.46,25.62s-8.48,40.42,2.94,46.1l-7.61-3.77C581.48,291.22,580.16,270.57,590,250.76Z"></path><path class="cls-22" d="M600.55,300.65l20.71,10.25L639,275c9.8-19.81,8.48-40.46-3-46.12s-28.65,5.82-38.46,25.62S589.11,295,600.55,300.65Zm4.92-27.31c-.54-8.51,4.76-19.22,11.84-23.94s13.28-1.66,13.82,6.85-4.76,19.2-11.84,23.92S606,281.83,605.47,273.34Z"></path><path class="cls-59" d="M723.94,344.58c-.28-10.47-.45-15.24-1.16-24.15a3,3,0,0,0-1.23-2.42,6.49,6.49,0,0,1,.23,2.13c0,6.14.11,14.78.2,21.8,0,.4,0,.8,0,1.2,0,1.54.49,4.09,0,5.39a6.46,6.46,0,0,1-1.21,1.27.12.12,0,0,0,0,.1.45.45,0,0,0,0-.08c-9.17,6.78-72.61,44.08-89.57,54.42a3.77,3.77,0,0,1-3.21.55c.88,2.31,3,3,5.27,1.65,18.07-11,76.05-46.51,89.31-54.6C723.92,351,724,346.28,723.94,344.58Z"></path><path class="cls-3" d="M721.38,349.39a3,3,0,0,0,.51-.49,1.79,1.79,0,0,0,.16-.37c0-1.88,0-4.14-.07-6.59-.13-7.82-.38-15.24-.49-23.47a2.14,2.14,0,0,0-.12-.57.87.87,0,0,1,.18.11c-.3-.79-1-.54-2.3.23-33.5,19.35-56.52,32.6-89.39,52.63a5,5,0,0,0-1.85,2.29,5.45,5.45,0,0,0-.44,3l0,.3a6,6,0,0,1,.48-1.89,5,5,0,0,1,1.85-2.29c32.87-20,55.89-33.27,89.39-52.63,2-1.16,1.37-.29,1.38,2.22.06,8.31-.29,26.57.09,28l0,0A1.35,1.35,0,0,1,721.38,349.39Z"></path><path class="cls-3" d="M721.49,318.47c.11,8.23.36,15.65.49,23.47-.09-7-.2-15.66-.2-21.8a6.49,6.49,0,0,0-.23-2.13.87.87,0,0,0-.18-.11A2.14,2.14,0,0,1,721.49,318.47Z"></path></g></svg> 